<svg xmlns="http://www.w3.org/2000/svg" width="14.686" height="16.053" viewBox="0 0 14.686 16.053">
  <path id="Path_262" data-name="Path 262" d="M50.6,36.732a4.206,4.206,0,0,0-1.249-2.684,3.793,3.793,0,0,0-5.334-.292L36.79,40.979l.928.928,7.223-7.223a2.489,2.489,0,0,1,3.479.292,2.9,2.9,0,0,1,.868,1.843,2.075,2.075,0,0,1-.576,1.636l-8.731,8.73a1.574,1.574,0,0,1-2.188-.21,1.857,1.857,0,0,1-.558-1.181,1.278,1.278,0,0,1,.352-1.009h0l8.541-8.541a.47.47,0,0,1,.361-.12.832.832,0,0,1,.736.736.466.466,0,0,1-.12.361l-7.021,7.022.928.928,7.021-7.022a1.771,1.771,0,0,0,.5-1.376,2.142,2.142,0,0,0-1.958-1.958,1.773,1.773,0,0,0-1.376.5L36.575,43.94l0,.005a2.577,2.577,0,0,0-.653,1.934,3.235,3.235,0,0,0,3.153,2.966,2.571,2.571,0,0,0,1.768-.677l0,0,.054-.054.009-.008h0l8.728-8.727A3.366,3.366,0,0,0,50.6,36.732Z" transform="translate(-35.92 -32.793)" fill="#003e92" opacity="0.65"/>
</svg>
