<svg xmlns="http://www.w3.org/2000/svg" width="15.659" height="15.64" viewBox="0 0 15.659 15.64">
  <g id="picture_icon" opacity="0.65">
    <path id="Path_255" data-name="Path 255" d="M28.419,14.085A1.933,1.933,0,0,0,26.9,12.694c-.038-.008-.076-.022-.113-.033H14.566a2.22,2.22,0,0,0-1.03.471,1.949,1.949,0,0,0-.66,1.188.621.621,0,0,1-.031.1V26.565c.028.109.053.22.085.328A1.949,1.949,0,0,0,14.85,28.3q2.89,0,5.779,0h5.762a1.944,1.944,0,0,0,2.088-1.726.164.164,0,0,1,.024-.044V14.451C28.476,14.329,28.457,14.2,28.419,14.085Zm-14.588.629a.974.974,0,0,1,.706-1.033,1.348,1.348,0,0,1,.356-.043q5.78,0,11.56,0A.979.979,0,0,1,27.512,14.7q0,3.053,0,6.107v.223l-2.929-2.989-4.835,4.916-2.032-1.962-3.874,3.552c-.005-.088-.011-.142-.011-.2Q13.831,19.53,13.831,14.714Zm8.58,12.609h-7.5a.994.994,0,0,1-1.088-1.071.705.705,0,0,1,.273-.613c1.166-1.026,2.319-2.067,3.477-3.1.042-.038.086-.074.116-.1l4.885,4.888Zm5.1-1.038a.97.97,0,0,1-1.044,1.039c-.774,0-1.548,0-2.322,0a.344.344,0,0,1-.222-.089Q22.2,25.5,20.49,23.758c-.023-.024-.044-.05-.056-.063L24.6,19.527c.03.028.072.065.111.1q1.344,1.344,2.684,2.691a.419.419,0,0,1,.112.264C27.515,23.819,27.514,25.052,27.512,26.284Z" transform="translate(-12.845 -12.661)" fill="#003e92" fill-rule="evenodd"/>
    <path id="Path_256" data-name="Path 256" d="M24.279,26.03a1.952,1.952,0,1,0-1.951-1.96A1.955,1.955,0,0,0,24.279,26.03Zm0-2.931a.978.978,0,1,1-.975.978A.976.976,0,0,1,24.28,23.1Z" transform="translate(-20.366 -20.168)" fill="#003e92" fill-rule="evenodd"/>
  </g>
</svg>
