<svg xmlns="http://www.w3.org/2000/svg" width="16.036" height="20.2" viewBox="0 0 16.036 20.2">
  <g id="delete_icon" transform="translate(-18.9 -10.8)">
    <path id="Path_259" data-name="Path 259" d="M20.277,17.745h.2v10.6A2.562,2.562,0,0,0,23.036,30.9H30.8a2.562,2.562,0,0,0,2.554-2.554v-10.6h.2a1.265,1.265,0,0,0,1.277-1.277V14.374A1.265,1.265,0,0,0,33.559,13.1H30.392V12.3a1.417,1.417,0,0,0-1.4-1.4H24.849a1.417,1.417,0,0,0-1.4,1.4V13.1H20.277A1.265,1.265,0,0,0,19,14.374v2.095A1.3,1.3,0,0,0,20.277,17.745Zm12.056,10.6A1.537,1.537,0,0,1,30.8,29.878H23.036A1.537,1.537,0,0,1,21.5,28.346v-10.6h10.83ZM24.466,12.3a.393.393,0,0,1,.383-.383h4.112a.393.393,0,0,1,.383.383V13.1H24.466Zm-4.444,2.069a.241.241,0,0,1,.255-.255H33.559a.241.241,0,0,1,.255.255v2.095a.241.241,0,0,1-.255.255H20.277a.241.241,0,0,1-.255-.255Z" fill="#003e92" stroke="#003e92" stroke-width="0.2"/>
    <rect id="Rectangle_204" data-name="Rectangle 204" width="1.091" height="7.961" transform="translate(28.992 19.58)" fill="#003e92" stroke="#003e92" stroke-width="0.2"/>
    <rect id="Rectangle_205" data-name="Rectangle 205" width="1.091" height="7.961" transform="translate(26.373 19.58)" fill="#003e92" stroke="#003e92" stroke-width="0.2"/>
    <rect id="Rectangle_206" data-name="Rectangle 206" width="1.091" height="7.961" transform="translate(23.754 19.58)" fill="#003e92" stroke="#003e92" stroke-width="0.2"/>
  </g>
</svg>
