<svg xmlns="http://www.w3.org/2000/svg" width="20.3" height="20.303" viewBox="0 0 20.3 20.303">
  <g id="edit_icon" transform="translate(-6.851 -957.205)">
    <path id="Path_257" data-name="Path 257" d="M23.853,959.359a.466.466,0,0,0-.276.131L13.054,970.013a.465.465,0,0,0-.138.283l-.327,2.958a.465.465,0,0,0,.516.516l2.958-.334a.466.466,0,0,0,.276-.131l10.523-10.523a.465.465,0,0,0,0-.661l-2.631-2.631A.465.465,0,0,0,23.853,959.359Zm.051,1.119,1.977,1.977-.654.654-1.977-1.977ZM7.465,961.684A.5.5,0,0,0,7,962.15v16.744a.483.483,0,0,0,.465.465H24.21a.483.483,0,0,0,.465-.465v-10a.465.465,0,1,0-.93,0v9.535H7.93V962.615h9.535a.465.465,0,1,0,0-.93Zm15.124.109,1.977,1.977-8.387,8.387L14.2,970.18Zm-8.823,9.266,1.526,1.526-1.715.189Z" transform="translate(0 -2)" fill="#003e92" stroke="#003e92" stroke-width="0.3"/>
  </g>
</svg>
