<svg xmlns="http://www.w3.org/2000/svg" viewBox="0 0 309.47 172.33"><defs><style>.cls-1{fill:#231f20;}</style></defs><title>eupap_logo_black</title><g id="EUPAP"><path class="cls-1" d="M252.64,173h4.7v2.35h-4.7v3.95h5.44v2.35h-8.33V166.72H258v2.35h-5.34Z" transform="translate(-48.72 -128.87)"/><path class="cls-1" d="M268.74,166.72h2.88v9.39a5.86,5.86,0,0,1-11.72,0v-9.39h2.88v9.39a3,3,0,1,0,6,0Z" transform="translate(-48.72 -128.87)"/><path class="cls-1" d="M249.76,186.92h3.32a3.43,3.43,0,1,1,0,6.86h-1.95v5.42h-1.37Zm3.32,1.16h-1.95v4.56h1.95a2.28,2.28,0,0,0,0-4.56Z" transform="translate(-48.72 -128.87)"/><path class="cls-1" d="M260.18,192.47H267v-5.54h1.32v12.28H267v-5.63h-6.81v5.63h-1.32V186.92h1.32Z" transform="translate(-48.72 -128.87)"/><path class="cls-1" d="M274.81,193.91l-4.69-7h1.54l3.81,5.67,3.83-5.67h1.53l-4.69,7v5.28h-1.33Z" transform="translate(-48.72 -128.87)"/><path class="cls-1" d="M287.86,189.08a3.78,3.78,0,0,0-2.6-1.09,2,2,0,0,0-2.18,2.07c0,2.88,6,1.88,6,5.76a3.46,3.46,0,0,1-3.77,3.51,5.21,5.21,0,0,1-3.84-1.61l.82-.82a4,4,0,0,0,2.9,1.25,2.33,2.33,0,0,0,2.53-2.28c0-2.79-5.95-1.74-5.95-5.76a3.15,3.15,0,0,1,3.4-3.3,5,5,0,0,1,3.54,1.44Z" transform="translate(-48.72 -128.87)"/><path class="cls-1" d="M291.3,186.92h1.33v12.28H291.3Z" transform="translate(-48.72 -128.87)"/><path class="cls-1" d="M301,198.14a4.82,4.82,0,0,0,3.58-1.4l.86.82a6.12,6.12,0,0,1-4.49,1.77,6.27,6.27,0,0,1,0-12.53,6.12,6.12,0,0,1,4.49,1.77l-.86.84A4.8,4.8,0,0,0,301,188a5.08,5.08,0,0,0,0,10.14Z" transform="translate(-48.72 -128.87)"/><path class="cls-1" d="M315.76,195.66h-6l-1.54,3.54h-1.53l5.46-12.28h1.26l5.44,12.28H317.3Zm-5.53-1.19h5l-2.51-5.86Z" transform="translate(-48.72 -128.87)"/><path class="cls-1" d="M322,198.1h4.81v1.11h-6.12V186.92H322Z" transform="translate(-48.72 -128.87)"/><path class="cls-1" d="M258.08,213.21h-6l-1.54,3.54H249l5.46-12.28h1.26l5.44,12.28h-1.53ZM252.55,212h5l-2.51-5.86Z" transform="translate(-48.72 -128.87)"/><path class="cls-1" d="M267.62,215.68a4.82,4.82,0,0,0,3.58-1.4l.86.83a6.12,6.12,0,0,1-4.49,1.77,6.27,6.27,0,0,1,0-12.53,6.12,6.12,0,0,1,4.49,1.77l-.86.84a4.8,4.8,0,0,0-3.58-1.42,5.08,5.08,0,0,0,0,10.14Z" transform="translate(-48.72 -128.87)"/><path class="cls-1" d="M278.31,216.75H277V205.57h-3.53v-1.11h8.37v1.11h-3.53Z" transform="translate(-48.72 -128.87)"/><path class="cls-1" d="M283.81,204.47h1.33v12.28h-1.33Z" transform="translate(-48.72 -128.87)"/><path class="cls-1" d="M293.64,216.75h-1.26l-5.46-12.28h1.56L293,215l4.51-10.56h1.56Z" transform="translate(-48.72 -128.87)"/><path class="cls-1" d="M300.85,204.47h1.33v12.28h-1.33Z" transform="translate(-48.72 -128.87)"/><path class="cls-1" d="M309,216.75h-1.32V205.57h-3.53v-1.11h8.37v1.11H309Z" transform="translate(-48.72 -128.87)"/><path class="cls-1" d="M318.41,211.45l-4.69-7h1.54l3.81,5.67,3.83-5.67h1.53l-4.69,7v5.28h-1.33Z" transform="translate(-48.72 -128.87)"/><path class="cls-1" d="M336,204.35a6.27,6.27,0,1,1-6.19,6.26A5.92,5.92,0,0,1,336,204.35Zm0,11.34c2.86,0,4.81-2.05,4.81-5.07s-1.95-5.07-4.81-5.07a5.08,5.08,0,0,0,0,10.14Z" transform="translate(-48.72 -128.87)"/><path class="cls-1" d="M345.32,204.47l7.63,9.79v-9.79h1.32v12.28h-.89L345.74,207v9.79h-1.32V204.47Z" transform="translate(-48.72 -128.87)"/><path class="cls-1" d="M249.76,222h3.32a3.43,3.43,0,1,1,0,6.86h-1.95v5.42h-1.37Zm3.32,1.16h-1.95v4.56h1.95a2.28,2.28,0,0,0,0-4.56Z" transform="translate(-48.72 -128.87)"/><path class="cls-1" d="M261.92,228.88h-1.68v5.42h-1.37V222h3.44a3.31,3.31,0,0,1,3.58,3.44,3.22,3.22,0,0,1-2.63,3.33l3.12,5.51h-1.51Zm.39-5.7h-2.07v4.56h2.07a2.28,2.28,0,0,0,0-4.56Z" transform="translate(-48.72 -128.87)"/><path class="cls-1" d="M269.55,227.56h4.6v1.11h-4.6v4.53h5.25v1.11h-6.56V222h6.47v1.11h-5.16Z" transform="translate(-48.72 -128.87)"/><path class="cls-1" d="M282.78,224.17a3.78,3.78,0,0,0-2.6-1.09,2,2,0,0,0-2.18,2.07c0,2.88,6,1.88,6,5.76a3.46,3.46,0,0,1-3.77,3.51,5.22,5.22,0,0,1-3.84-1.61l.82-.83a4,4,0,0,0,2.9,1.25,2.33,2.33,0,0,0,2.53-2.28c0-2.79-5.95-1.74-5.95-5.76a3.15,3.15,0,0,1,3.4-3.3,5,5,0,0,1,3.54,1.44Z" transform="translate(-48.72 -128.87)"/><path class="cls-1" d="M291.72,233.23a4.82,4.82,0,0,0,3.58-1.4l.86.83a6.12,6.12,0,0,1-4.49,1.77,6.27,6.27,0,0,1,0-12.53,6.12,6.12,0,0,1,4.49,1.77l-.86.84a4.81,4.81,0,0,0-3.58-1.42,5.08,5.08,0,0,0,0,10.14Z" transform="translate(-48.72 -128.87)"/><path class="cls-1" d="M301.25,228.88h-1.68v5.42H298.2V222h3.44a3.31,3.31,0,0,1,3.58,3.44,3.22,3.22,0,0,1-2.63,3.33l3.12,5.51H304.2Zm.39-5.7h-2.07v4.56h2.07a2.28,2.28,0,0,0,0-4.56Z" transform="translate(-48.72 -128.87)"/><path class="cls-1" d="M307.51,222h1.33V234.3h-1.33Z" transform="translate(-48.72 -128.87)"/><path class="cls-1" d="M311.46,222h3.32a3.43,3.43,0,1,1,0,6.86h-1.95v5.42h-1.37Zm3.32,1.16h-1.95v4.56h1.95a2.28,2.28,0,0,0,0-4.56Z" transform="translate(-48.72 -128.87)"/><path class="cls-1" d="M324.77,234.3h-1.32V223.12h-3.53V222h8.37v1.11h-3.53Z" transform="translate(-48.72 -128.87)"/><path class="cls-1" d="M330.28,222h1.33V234.3h-1.33Z" transform="translate(-48.72 -128.87)"/><path class="cls-1" d="M340,221.89a6.27,6.27,0,1,1-6.19,6.26A5.92,5.92,0,0,1,340,221.89Zm0,11.34c2.86,0,4.81-2.05,4.81-5.07s-1.95-5.07-4.81-5.07a5.08,5.08,0,0,0,0,10.14Z" transform="translate(-48.72 -128.87)"/><path class="cls-1" d="M349.24,222l7.63,9.79V222h1.32V234.3h-.89l-7.63-9.79v9.79h-1.32V222Z" transform="translate(-48.72 -128.87)"/><path class="cls-1" d="M156.13,203.45l6.41,26.05a6.4,6.4,0,0,1,1-.23L157.1,203.2A6.38,6.38,0,0,1,156.13,203.45Z" transform="translate(-48.72 -128.87)"/><path class="cls-1" d="M168.88,155.48,185.49,140a6.47,6.47,0,0,1-.68-.73l-16.6,15.43A6.47,6.47,0,0,1,168.88,155.48Z" transform="translate(-48.72 -128.87)"/><path class="cls-1" d="M193.86,140.35l19.89,21.91a6.46,6.46,0,0,1,.72-.65l-19.9-21.92A6.47,6.47,0,0,1,193.86,140.35Z" transform="translate(-48.72 -128.87)"/><path class="cls-1" d="M149,194.62,141.81,192a6.39,6.39,0,0,1-.32.89l7.26,2.6A6.4,6.4,0,0,1,149,194.62Z" transform="translate(-48.72 -128.87)"/><path class="cls-1" d="M171,235.62c0,.13,0,.25,0,.37L224,234.94c0-.21,0-.42,0-.63s0-.25,0-.37L171,235C171,235.2,171,235.41,171,235.62Z" transform="translate(-48.72 -128.87)"/><path class="cls-1" d="M160.51,200.41l63.95,31.51a6.41,6.41,0,0,1,.44-.9L161,199.51A6.4,6.4,0,0,1,160.51,200.41Z" transform="translate(-48.72 -128.87)"/><path class="cls-1" d="M140.37,186l19.47-21.5a6.47,6.47,0,0,1-.74-.67L139.64,185.3A6.47,6.47,0,0,1,140.37,186Z" transform="translate(-48.72 -128.87)"/><path class="cls-1" d="M228.82,228.08a6.4,6.4,0,0,1,1-.18l-9.81-55a6.4,6.4,0,0,1-1,.17Z" transform="translate(-48.72 -128.87)"/><path class="cls-1" d="M150.39,201.63,112,246.81a6.46,6.46,0,0,1,.78.63l38.38-45.15A6.47,6.47,0,0,1,150.39,201.63Z" transform="translate(-48.72 -128.87)"/><path class="cls-1" d="M101.93,251.82l-40.37,1.34a6.49,6.49,0,0,1,0,.71c0,.1,0,.19,0,.29L102,252.82a6.5,6.5,0,0,1,0-.69C101.92,252,101.93,251.92,101.93,251.82Z" transform="translate(-48.72 -128.87)"/><path class="cls-1" d="M165.85,241.93a6.47,6.47,0,0,1-1,.12l5.39,46.39a6.47,6.47,0,0,1,1-.11Z" transform="translate(-48.72 -128.87)"/><path class="cls-1" d="M212.12,165.34l-41.93-5.59a6.45,6.45,0,0,1-.12,1L212,166.33A6.46,6.46,0,0,1,212.12,165.34Z" transform="translate(-48.72 -128.87)"/><path class="cls-1" d="M132.48,195.94l-22.38,50a6.38,6.38,0,0,1,.93.34l22.35-49.92A6.4,6.4,0,0,1,132.48,195.94Z" transform="translate(-48.72 -128.87)"/><path class="cls-1" d="M114.36,249.82a6.37,6.37,0,0,1,.29,1l43.88-12.86a6.37,6.37,0,0,1-.29-1Z" transform="translate(-48.72 -128.87)"/><path class="cls-1" d="M225.58,238.53,175.45,289.7a6.47,6.47,0,0,1,.74.68l50.1-51.15A6.48,6.48,0,0,1,225.58,238.53Z" transform="translate(-48.72 -128.87)"/><path class="cls-1" d="M130.85,194.64a6.47,6.47,0,0,1-.61-.77L59.91,249.53a6.45,6.45,0,0,1,.61.77Z" transform="translate(-48.72 -128.87)"/><path class="cls-1" d="M157,191l5.82-25.25a6.42,6.42,0,0,1-1-.22L156,190.77A6.4,6.4,0,0,1,157,191Z" transform="translate(-48.72 -128.87)"/><circle class="cls-1" cx="141.14" cy="6.44" r="6.44"/><circle class="cls-1" cx="115.05" cy="30.52" r="6.44"/><circle class="cls-1" cx="169.7" cy="37.82" r="6.44"/><circle class="cls-1" cx="86.89" cy="61.44" r="6.44"/><circle class="cls-1" cx="106.26" cy="68.25" r="6.44"/><circle class="cls-1" cx="115.82" cy="106.75" r="6.44"/><circle class="cls-1" cx="59.64" cy="123.25" r="6.44"/><circle class="cls-1" cx="6.44" cy="125" r="6.44"/><circle class="cls-1" cx="122.76" cy="165.89" r="6.44"/><circle class="cls-1" cx="181.72" cy="105.44" r="6.44"/></g></svg>