<svg xmlns="http://www.w3.org/2000/svg" width="26.998" height="27" viewBox="0 0 26.998 27"><g transform="translate(-136.502 -578.5)"><g transform="translate(140 580)" fill="none" stroke="#003e92" stroke-width="1.5"><rect width="20" height="24" rx="3" stroke="none"/><rect x="0.75" y="0.75" width="18.5" height="22.5" rx="2.25" fill="none"/></g><g transform="translate(129.441 557.071)" fill="#003e92"><path d="M 10.39425563812256 47.67856979370117 C 9.302075386047363 47.67856979370117 8.454185485839844 47.14682006835938 8.00677490234375 46.18128204345703 L 7.995945453643799 46.15792083740234 L 7.98675537109375 46.13387298583984 C 7.440538883209229 44.70574569702148 8.147210121154785 42.94852828979492 9.976473808288574 41.18558502197266 C 11.17021179199219 39.99842071533203 12.8653450012207 39.00076675415039 15.15215492248535 38.14034271240234 C 16.13810729980469 36.32807922363281 17.0977611541748 34.26797103881836 17.82839775085449 32.39636611938477 C 16.20493125915527 29.67361259460449 15.95086765289307 26.42336273193359 16.56222534179688 24.5412712097168 C 17.02841567993164 23.08184051513672 17.89127540588379 22.52086067199707 18.5328254699707 22.307861328125 L 18.54107475280762 22.30513191223145 L 18.54937553405762 22.30258178710938 C 18.8178653717041 22.22030067443848 19.08655548095703 22.1785717010498 19.34799575805664 22.1785717010498 C 20.03536224365234 22.1785717010498 20.65326881408691 22.4593505859375 21.13531303405762 22.99062347412109 C 21.9820671081543 23.9030704498291 22.30794334411621 25.6308708190918 22.13156127929688 28.2725830078125 C 22.07724189758301 29.2345142364502 21.79192543029785 30.43691825866699 21.26078224182129 31.93928527832031 C 21.32826805114746 32.02254486083984 21.3975830078125 32.10702514648438 21.46888542175293 32.19393157958984 C 21.72782516479492 32.50952529907227 21.99541664123535 32.83567810058594 22.24785995483398 33.19271469116211 C 22.37700271606445 33.35165405273438 22.50828742980957 33.51377868652344 22.64141464233398 33.67816162109375 C 23.3812198638916 34.59173583984375 24.14410018920898 35.53379440307617 24.91774940490723 36.40249252319336 L 25.43704605102539 36.40249252319336 C 29.41630554199219 36.40249252319336 32.02023696899414 37.26673126220703 32.96732711791992 38.90178298950195 L 32.97183609008789 38.90957260131836 L 32.97616577148438 38.91747283935547 C 33.42233657836914 39.73223114013672 33.42233657836914 40.6296501159668 32.97615432739258 41.44441223144531 L 32.97257614135742 41.45094299316406 L 32.96886444091797 41.45741271972656 C 32.39449691772461 42.45849990844727 31.19411468505859 43.05615997314453 29.75785446166992 43.05615997314453 C 29.49006462097168 43.05615997314453 29.17378997802734 43.01812362670898 28.76289749145508 42.93647766113281 C 27.23741912841797 42.65321350097656 25.59019660949707 41.56622695922852 23.59831237792969 39.52441787719727 C 23.45017242431641 39.53450775146484 23.30153465270996 39.54209518432617 23.15557479858398 39.54954147338867 C 22.91173553466797 39.56199264526367 22.65959548950195 39.57485961914062 22.41750526428223 39.59897994995117 L 22.41413497924805 39.59931945800781 L 22.4107551574707 39.59963226318359 C 21.79868698120117 39.65503311157227 19.66720199584961 39.88727951049805 17.19656562805176 40.6005973815918 C 16.09892082214355 42.57600402832031 14.172194480896 45.73020553588867 12.51719570159912 46.82746505737305 C 11.93630695343018 47.37694549560547 11.18567371368408 47.67856979370117 10.39425563812256 47.67856979370117 Z M 19.99923515319824 35.25713729858398 C 19.7533073425293 35.82942581176758 19.48109436035156 36.42510604858398 19.18749809265137 37.03348159790039 C 19.93748664855957 36.89357757568359 20.6311092376709 36.79949188232422 21.2100658416748 36.73065948486328 C 20.79785346984863 36.23112106323242 20.38916778564453 35.73446273803711 19.99923515319824 35.25713729858398 Z" stroke="none"/><path d="M 10.39425563812256 46.92856979370117 C 10.98102569580078 46.92856979370117 11.56779479980469 46.71606063842773 12.04789543151855 46.23786163330078 C 13.64818572998047 45.2283821105957 15.7285852432251 41.72173309326172 16.68875503540039 39.96842193603516 C 18.98251533508301 39.27770233154297 21.16959571838379 38.95891189575195 22.3431453704834 38.85268020629883 C 22.87656593322754 38.79953002929688 23.41000556945801 38.79953002929688 23.89009475708008 38.74641036987305 C 25.86379432678223 40.81851196289062 27.46409606933594 41.93426132202148 28.90435600280762 42.19992065429688 C 29.17107582092285 42.2530517578125 29.49114608764648 42.30615997314453 29.75785446166992 42.30615997314453 C 30.93140602111816 42.30615997314453 31.89157485961914 41.82798004150391 32.31833648681641 41.08417129516602 C 32.63838577270508 40.49973297119141 32.63838577270508 39.86215209960938 32.31833648681641 39.27770233154297 C 31.51818466186523 37.89632034301758 29.06437492370605 37.15249252319336 25.43704605102539 37.15249252319336 C 25.17033576965332 37.15249252319336 24.90361595153809 37.15249252319336 24.58355522155762 37.15249252319336 C 23.57003593444824 36.03672027587891 22.55650520324707 34.76158142089844 21.6496753692627 33.64585113525391 C 21.27627563476562 33.11453247070312 20.84953498840332 32.6363525390625 20.47612571716309 32.15817260742188 C 20.47612571716309 32.10505294799805 20.42278480529785 32.10505294799805 20.42278480529785 32.05191040039062 C 21.00955581665039 30.4579906463623 21.32962608337402 29.18284034729004 21.38296508789062 28.22648048400879 C 21.54299545288086 25.83560180664062 21.27627563476562 24.24166107177734 20.58281517028809 23.49784088134766 C 20.23988914489746 23.11832237243652 19.81534004211426 22.92857551574707 19.34799766540527 22.92857551574707 C 19.16106796264648 22.92857551574707 18.96726989746094 22.95894050598145 18.76914596557617 23.01966094970703 C 18.28905487060547 23.17905044555664 17.64892578125 23.60409164428711 17.27553558349609 24.77298164367676 C 16.68874549865723 26.57943153381348 17.00882530212402 29.76729202270508 18.66245460510254 32.31756210327148 C 17.91564559936523 34.28342056274414 16.84878540039062 36.62118148803711 15.6752347946167 38.74641036987305 C 13.48815536499023 39.54338073730469 11.72782516479492 40.49973297119141 10.50094509124756 41.72174072265625 C 8.90064525604248 43.26251983642578 8.260525703430176 44.75020217895508 8.687265396118164 45.86595153808594 C 9.007325172424316 46.55665969848633 9.59410572052002 46.92856979370117 10.39425563812256 46.92856979370117 M 14.39499568939209 40.97792053222656 C 13.11475563049316 43.05001068115234 11.99455547332764 44.53767013549805 11.24774551391602 45.01585006713867 C 10.92768573760986 45.2283821105957 10.60762500762939 45.33464050292969 10.39425563812256 45.33464050292969 C 10.28756523132324 45.33464050292969 10.18087482452393 45.33464050292969 10.18087482452393 45.28152084350586 C 10.12753486633301 45.0689811706543 10.23422527313232 44.21889114379883 11.62114524841309 42.83749008178711 C 12.36795520782471 42.14677047729492 13.27478504180908 41.50920104980469 14.39499568939209 40.97792053222656 M 26.1838550567627 38.79953002929688 C 29.43779563903809 38.90581130981445 30.7180347442627 39.64963150024414 31.03809547424316 40.12781143188477 C 31.0914249420166 40.23406219482422 31.03809547424316 40.28721237182617 31.03809547424316 40.34033203125 C 30.93139457702637 40.55284118652344 30.5046558380127 40.765380859375 29.86453437805176 40.765380859375 C 29.65117454528809 40.765380859375 29.49114608764648 40.765380859375 29.27776527404785 40.71224212646484 C 28.42426490783691 40.55285263061523 27.4107551574707 39.9152717590332 26.1838550567627 38.79953002929688 M 19.78266525268555 33.80523300170898 C 19.99603462219238 34.07089233398438 20.20940589904785 34.38967132568359 20.47612571716309 34.65533065795898 C 21.16959571838379 35.50542068481445 21.91639518737793 36.40864181518555 22.66320610046387 37.31188201904297 C 22.55650520324707 37.3650016784668 22.39647483825684 37.3650016784668 22.289794921875 37.3650016784668 C 21.32962608337402 37.47127151489258 19.62263488769531 37.63066101074219 17.80895614624023 38.10884094238281 C 18.55576515197754 36.67431259155273 19.24922561645508 35.18663024902344 19.78266525268555 33.80523300170898 M 19.30257606506348 24.56046104431152 L 19.35591506958008 24.56046104431152 C 19.35591506958008 24.56046104431152 19.35591506958008 24.56046104431152 19.46260452270508 24.61359214782715 C 19.56928443908691 24.71985054016113 20.04938507080078 25.46368217468262 19.83600616455078 28.12023162841797 C 19.83600616455078 28.65153121948242 19.67597579956055 29.39537048339844 19.40925598144531 30.2454719543457 C 18.60911560058594 28.43901062011719 18.4490852355957 26.47317123413086 18.82248497009277 25.30429077148438 C 18.92916488647461 24.87924194335938 19.14253616333008 24.61359214782715 19.30257606506348 24.56046104431152 M 10.39425563812256 48.42856979370117 C 9.013444900512695 48.42856979370117 7.895215034484863 47.72439193725586 7.326285362243652 46.49660110473633 L 7.304635047912598 46.44989013671875 L 7.286245346069336 46.40180206298828 C 6.903825759887695 45.40193176269531 6.677321910858154 43.32596206665039 9.451419830322266 40.64999389648438 C 10.67429637908936 39.43522644042969 12.37037372589111 38.41472244262695 14.62446212768555 37.53915786743164 C 15.49157047271729 35.92195892333984 16.33062171936035 34.12485122680664 16.99819374084473 32.45644378662109 C 16.33295822143555 31.25225639343262 15.86983108520508 29.90009880065918 15.6474552154541 28.50195121765137 C 15.40185070037842 26.95773124694824 15.47287750244141 25.47076606750488 15.84736633300781 24.31435012817383 C 16.41082763671875 22.55276107788086 17.49013900756836 21.8637866973877 18.2965145111084 21.59607124328613 L 18.3130054473877 21.59059143066406 L 18.32962608337402 21.58550071716309 C 18.66940498352051 21.48137092590332 19.01202583312988 21.4285717010498 19.34799575805664 21.4285717010498 C 20.23834991455078 21.4285717010498 21.06878852844238 21.80303573608398 21.68769645690918 22.4832935333252 C 22.69389533996582 23.56997489929199 23.07289505004883 25.42516708374023 22.8801326751709 28.31891822814941 C 22.82634544372559 29.26177597045898 22.57229423522949 30.40235328674316 22.1062068939209 31.78830528259277 C 22.35064125061035 32.08647537231445 22.60143089294434 32.39548873901367 22.8454704284668 32.73887634277344 C 22.96986198425293 32.89201354980469 23.09621238708496 33.04804229736328 23.22426605224609 33.20617294311523 C 23.88728523254395 34.02491760253906 24.5689811706543 34.8667106628418 25.25619125366211 35.65249252319336 L 25.43704605102539 35.65249252319336 C 27.39730453491211 35.65249252319336 29.05986595153809 35.85798263549805 30.3785457611084 36.26327133178711 C 31.93428611755371 36.74141311645508 33.02362442016602 37.50265121459961 33.61630630493164 38.52585983276367 L 33.62533569335938 38.54144287109375 L 33.63398361206055 38.5572395324707 C 34.19905471801758 39.58913040161133 34.19905471801758 40.77276229858398 33.63397598266602 41.80464172363281 L 33.62681579589844 41.81772232055664 L 33.6193962097168 41.83065032958984 C 32.90967559814453 43.06764984130859 31.46610450744629 43.80615997314453 29.75785446166992 43.80615997314453 C 29.44083404541016 43.80615997314453 29.07951164245605 43.76384735107422 28.6214714050293 43.67303848266602 C 26.98016929626465 43.36706161499023 25.32159423828125 42.3167724609375 23.30271148681641 40.29297256469727 C 23.26627159118652 40.29486846923828 23.22994995117188 40.29672622680664 23.19380569458008 40.2985725402832 C 22.94805526733398 40.31111145019531 22.71593475341797 40.32295989990234 22.49186515808105 40.34529113769531 L 22.4851245880127 40.34596252441406 L 22.47837448120117 40.34657287597656 C 21.90775680541992 40.39823150634766 19.9781551361084 40.60811614990234 17.69864463806152 41.23807525634766 C 17.25286865234375 42.02627944946289 16.5869026184082 43.15195083618164 15.84442520141602 44.23189163208008 C 14.77122783660889 45.79284286499023 13.83399391174316 46.83703994750977 12.98489284515381 47.41672897338867 C 12.27094459533691 48.07048416137695 11.35739803314209 48.42856979370117 10.39425563812256 48.42856979370117 Z" stroke="none" fill="#f0f4fa"/></g></g></svg>