<svg xmlns="http://www.w3.org/2000/svg" width="173" height="96.336" viewBox="0 0 173 96.336">
  <g id="logo_baltas" transform="translate(0 0)">
    <g id="EUPAP" transform="translate(0 0)">
      <path id="Path_263" data-name="Path 263" d="M202.624,41.348h2.614v1.307h-2.614v2.2h3.031v1.307H201V37.85h4.572v1.307H202.6Z" transform="translate(-88.621 -16.681)" fill="#fff"/>
      <path id="Path_264" data-name="Path 264" d="M216.077,37.85h1.6v5.223a3.259,3.259,0,1,1-6.518,0V37.85h1.6v5.223a1.669,1.669,0,1,0,3.337,0Z" transform="translate(-93.094 -16.681)" fill="#fff"/>
      <path id="Path_265" data-name="Path 265" d="M201,58.05h1.846a1.908,1.908,0,1,1,0,3.815h-1.112v3.02H201Zm1.846.645h-1.112v2.536h1.112a1.268,1.268,0,1,0,0-2.536Z" transform="translate(-88.624 -25.586)" fill="#fff"/>
      <path id="Path_266" data-name="Path 266" d="M210.874,61.137h3.788V58.05h.729v6.835h-.729V61.749h-3.788v3.137h-.734V58.05h.734Z" transform="translate(-92.649 -25.586)" fill="#fff"/>
      <path id="Path_267" data-name="Path 267" d="M224.013,61.893,221.41,58h.884l2.119,3.154L226.538,58h.851l-2.609,3.893v2.942h-.74Z" transform="translate(-97.615 -25.564)" fill="#fff"/>
      <path id="Path_268" data-name="Path 268" d="M236.3,59.2a2.108,2.108,0,0,0-1.44-.606,1.112,1.112,0,0,0-1.212,1.151c0,1.6,3.337,1.046,3.337,3.2a1.924,1.924,0,0,1-2.1,1.952,2.9,2.9,0,0,1-2.136-.9l.462-.456a2.225,2.225,0,0,0,1.607.7,1.3,1.3,0,0,0,1.407-1.263c0-1.552-3.309-.962-3.309-3.2a1.752,1.752,0,0,1,1.891-1.835,2.781,2.781,0,0,1,1.974.79Z" transform="translate(-102.621 -25.537)" fill="#fff"/>
      <path id="Path_269" data-name="Path 269" d="M242.58,58.05h.74v6.835h-.74Z" transform="translate(-106.97 -25.586)" fill="#fff"/>
      <path id="Path_270" data-name="Path 270" d="M249.542,64.234a2.675,2.675,0,0,0,1.991-.784l.478.462a3.409,3.409,0,0,1-2.5.984,3.486,3.486,0,1,1,0-6.969,3.41,3.41,0,0,1,2.5.984l-.478.467a2.681,2.681,0,0,0-1.991-.79,2.823,2.823,0,1,0,0,5.645Z" transform="translate(-108.482 -25.53)" fill="#fff"/>
      <path id="Path_271" data-name="Path 271" d="M263.006,62.911h-3.337l-.862,1.974H258l3.031-6.835h.706l3.026,6.835h-.851Zm-3.076-.662h2.781l-1.374-3.259Z" transform="translate(-113.626 -25.586)" fill="#fff"/>
      <path id="Path_272" data-name="Path 272" d="M272.664,64.268h2.67v.617h-3.4V58.05h.734Z" transform="translate(-119.809 -25.586)" fill="#fff"/>
      <path id="Path_273" data-name="Path 273" d="M205.335,80.461H202l-.856,1.969h-.851l3.037-6.83h.7l3.026,6.83h-.856Zm-3.076-.667h2.781l-1.4-3.259Z" transform="translate(-88.3 -33.321)" fill="#fff"/>
      <path id="Path_274" data-name="Path 274" d="M216.1,81.78A2.692,2.692,0,0,0,218.091,81l.478.456a3.387,3.387,0,0,1-2.5.984,3.482,3.482,0,1,1,0-6.963,3.409,3.409,0,0,1,2.5.984l-.478.467a2.681,2.681,0,0,0-1.991-.79,2.82,2.82,0,1,0,0,5.64Z" transform="translate(-93.726 -33.267)" fill="#fff"/>
      <path id="Path_275" data-name="Path 275" d="M227.437,82.43H226.7V76.212H224.74V75.6H229.4v.612h-1.958Z" transform="translate(-99.088 -33.321)" fill="#fff"/>
      <path id="Path_276" data-name="Path 276" d="M235.09,75.6h.745v6.83h-.745Z" transform="translate(-103.667 -33.321)" fill="#fff"/>
      <path id="Path_277" data-name="Path 277" d="M241.937,82.43h-.706L238.2,75.6h.868l2.52,5.873L244.1,75.6h.868Z" transform="translate(-105.014 -33.321)" fill="#fff"/>
      <path id="Path_278" data-name="Path 278" d="M252.13,75.6h.74v6.83h-.74Z" transform="translate(-111.021 -33.321)" fill="#fff"/>
      <path id="Path_279" data-name="Path 279" d="M258.151,82.43h-.717V76.212H255.47V75.6h4.655v.612h-1.958Z" transform="translate(-112.503 -33.321)" fill="#fff"/>
      <path id="Path_280" data-name="Path 280" d="M267.608,79.473,265,75.58h.862l2.113,3.154,2.13-3.154h.851l-2.608,3.893V82.41h-.74Z" transform="translate(-116.733 -33.313)" fill="#fff"/>
      <path id="Path_281" data-name="Path 281" d="M284.564,75.477a3.482,3.482,0,1,1-3.448,3.482,3.293,3.293,0,0,1,3.448-3.482Zm0,6.3a2.824,2.824,0,0,0,0-5.64,2.825,2.825,0,0,0,0,5.64Z" transform="translate(-123.883 -33.265)" fill="#fff"/>
      <path id="Path_282" data-name="Path 282" d="M296.2,75.6l4.244,5.445V75.6h.734v6.83h-.5l-4.255-5.445V82.43H295.7V75.6Z" transform="translate(-130.359 -33.321)" fill="#fff"/>
      <path id="Path_283" data-name="Path 283" d="M201,93.138h1.846a1.913,1.913,0,1,1,0,3.821h-1.112v3.014H201Zm1.846.645h-1.112v2.542h1.112a1.274,1.274,0,0,0,0-2.542Z" transform="translate(-88.624 -41.05)" fill="#fff"/>
      <path id="Path_284" data-name="Path 284" d="M211.842,96.95h-.94v3.014h-.762v-6.83h1.913a1.841,1.841,0,0,1,1.991,1.913,1.785,1.785,0,0,1-1.463,1.858l1.735,3.065h-.834Zm.211-3.176H210.9v2.542h1.151a1.274,1.274,0,0,0,0-2.542Z" transform="translate(-92.653 -41.047)" fill="#fff"/>
      <path id="Path_285" data-name="Path 285" d="M220.244,96.227H222.8v.617h-2.558v2.514h2.92v.617H219.51V93.14h3.61v.617h-2.87Z" transform="translate(-96.786 -41.052)" fill="#fff"/>
      <path id="Path_286" data-name="Path 286" d="M231.219,94.284a2.108,2.108,0,0,0-1.446-.606,1.112,1.112,0,0,0-1.212,1.157c0,1.6,3.337,1.04,3.337,3.2a1.924,1.924,0,0,1-2.1,1.952,2.925,2.925,0,0,1-2.141-.9l.462-.462a2.225,2.225,0,0,0,1.607.7,1.3,1.3,0,0,0,1.407-1.268c0-1.552-3.309-.968-3.309-3.2a1.758,1.758,0,0,1,1.9-1.835,2.781,2.781,0,0,1,1.969.8Z" transform="translate(-100.377 -40.994)" fill="#fff"/>
      <path id="Path_287" data-name="Path 287" d="M240.2,99.317a2.664,2.664,0,0,0,1.991-.784l.478.462a3.409,3.409,0,0,1-2.5.984A3.49,3.49,0,0,1,240.2,93a3.409,3.409,0,0,1,2.5.984l-.478.473a2.781,2.781,0,1,0-1.991,4.85Z" transform="translate(-104.356 -40.989)" fill="#fff"/>
      <path id="Path_288" data-name="Path 288" d="M251.176,96.95h-.94v3.014h-.756v-6.83h1.908a1.841,1.841,0,0,1,1.991,1.913,1.785,1.785,0,0,1-1.463,1.858l1.741,3.065h-.84Zm.211-3.176h-1.151v2.542h1.151a1.274,1.274,0,0,0,0-2.542Z" transform="translate(-109.845 -41.047)" fill="#fff"/>
      <path id="Path_289" data-name="Path 289" d="M258.79,93.14h.74v6.835h-.74Z" transform="translate(-113.977 -41.052)" fill="#fff"/>
      <path id="Path_290" data-name="Path 290" d="M262.74,93.138h1.841a1.913,1.913,0,1,1,0,3.821H263.5v3.014h-.762Zm1.841.645H263.5v2.542h1.079a1.274,1.274,0,0,0,0-2.542Z" transform="translate(-115.73 -41.05)" fill="#fff"/>
      <path id="Path_291" data-name="Path 291" d="M273.9,99.975h-.729V93.757H271.21V93.14h4.655v.617H273.9Z" transform="translate(-119.489 -41.052)" fill="#fff"/>
      <path id="Path_292" data-name="Path 292" d="M281.56,93.14h.74v6.835h-.74Z" transform="translate(-124.083 -41.052)" fill="#fff"/>
      <path id="Path_293" data-name="Path 293" d="M288.493,93a3.487,3.487,0,1,1-3.448,3.487A3.293,3.293,0,0,1,288.493,93Zm0,6.307a1.154,1.154,0,1,0,0,.011Z" transform="translate(-125.627 -40.987)" fill="#fff"/>
      <path id="Path_294" data-name="Path 294" d="M300.125,93.14l4.249,5.451V93.14h.728v6.835h-.495l-4.249-5.445v5.445h-.729V93.14Z" transform="translate(-132.103 -41.052)" fill="#fff"/>
      <path id="Path_295" data-name="Path 295" d="M107.41,74.469l3.565,14.488a4.236,4.236,0,0,1,.556-.128l-3.565-14.5a3.662,3.662,0,0,1-.556.139Z" transform="translate(-47.358 -32.74)" fill="#fff"/>
      <path id="Path_296" data-name="Path 296" d="M119.863,19.429l9.238-8.593a3.755,3.755,0,0,1-.378-.406l-9.233,8.587A3.275,3.275,0,0,1,119.863,19.429Z" transform="translate(-52.673 -4.629)" fill="#fff"/>
      <path id="Path_297" data-name="Path 297" d="M145.14,11.187l11.046,12.186a3.561,3.561,0,0,1,.4-.367L145.518,10.82a4.122,4.122,0,0,1-.378.367Z" transform="translate(-63.974 -4.802)" fill="#fff"/>
      <path id="Path_298" data-name="Path 298" d="M96.975,64.6l-4.027-1.44a3.479,3.479,0,0,1-.178.5L96.808,65.1A3.109,3.109,0,0,1,96.975,64.6Z" transform="translate(-40.903 -27.848)" fill="#fff"/>
      <path id="Path_299" data-name="Path 299" d="M122.256,106v.206l29.511-.584v-.556l-29.516.59C122.25,105.771,122.256,105.888,122.256,106Z" transform="translate(-53.838 -46.33)" fill="#fff"/>
      <path id="Path_300" data-name="Path 300" d="M111.79,71.141l35.6,17.525a3.752,3.752,0,0,1,.25-.495L112.04,70.64A4.205,4.205,0,0,1,111.79,71.141Z" transform="translate(-49.213 -31.104)" fill="#fff"/>
      <path id="Path_301" data-name="Path 301" d="M91.326,47.276l10.829-11.963a2.9,2.9,0,0,1-.412-.373L90.92,46.892a3.773,3.773,0,0,1,.406.384Z" transform="translate(-40.076 -15.393)" fill="#fff"/>
      <path id="Path_302" data-name="Path 302" d="M175.751,74.72a4.479,4.479,0,0,1,.556-.1l-5.451-30.59a4.379,4.379,0,0,1-.556.1Z" transform="translate(-75.081 -19.357)" fill="#fff"/>
      <path id="Path_303" data-name="Path 303" d="M84.627,72.76,63.27,97.888a3.735,3.735,0,0,1,.434.35L85.05,73.127A3.341,3.341,0,0,1,84.627,72.76Z" transform="translate(-27.875 -32.011)" fill="#fff"/>
      <path id="Path_304" data-name="Path 304" d="M35.293,123l-22.453.745v.556l22.47-.745a2.985,2.985,0,0,1,0-.389A.531.531,0,0,1,35.293,123Z" transform="translate(-5.699 -54.235)" fill="#fff"/>
      <path id="Path_305" data-name="Path 305" d="M116.686,113.06a3.707,3.707,0,0,1-.556.067l3,25.8a4.6,4.6,0,0,1,.556-.061Z" transform="translate(-51.204 -49.688)" fill="#fff"/>
      <path id="Path_306" data-name="Path 306" d="M144.737,33.989,121.422,30.88a3.542,3.542,0,0,1-.072.556l23.321,3.109A3.543,3.543,0,0,1,144.737,33.989Z" transform="translate(-53.459 -13.614)" fill="#fff"/>
      <path id="Path_307" data-name="Path 307" d="M73.823,67.07,61.37,94.879a3.243,3.243,0,0,1,.523.189L74.323,67.3A3.719,3.719,0,0,1,73.823,67.07Z" transform="translate(-27.049 -29.498)" fill="#fff"/>
      <path id="Path_308" data-name="Path 308" d="M65.64,115.23a3.237,3.237,0,0,1,.161.556l24.405-7.23a3.482,3.482,0,0,1-.161-.556Z" transform="translate(-28.915 -47.598)" fill="#fff"/>
      <path id="Path_309" data-name="Path 309" d="M154.611,109.66,126.73,138.12a3.275,3.275,0,0,1,.412.373l27.865-28.443A3.729,3.729,0,0,1,154.611,109.66Z" transform="translate(-55.815 -48.179)" fill="#fff"/>
      <path id="Path_310" data-name="Path 310" d="M50.645,65.424a3.643,3.643,0,0,1-.339-.434L11.19,95.952a4.094,4.094,0,0,1,.339.428Z" transform="translate(-4.966 -28.569)" fill="#fff"/>
      <path id="Path_311" data-name="Path 311" d="M107.829,50.826l3.237-14.044a3.6,3.6,0,0,1-.556-.122L107.29,50.7A4.02,4.02,0,0,1,107.829,50.826Z" transform="translate(-47.306 -16.148)" fill="#fff"/>
      <ellipse id="Ellipse_43" data-name="Ellipse 43" cx="3.582" cy="3.582" rx="3.582" ry="3.582" transform="translate(75.317)" fill="#ffc71b"/>
      <ellipse id="Ellipse_44" data-name="Ellipse 44" cx="3.582" cy="3.582" rx="3.582" ry="3.582" transform="translate(60.729 13.393)" fill="#ffc71b"/>
      <ellipse id="Ellipse_45" data-name="Ellipse 45" cx="3.582" cy="3.582" rx="3.582" ry="3.582" transform="translate(91.286 17.549)" fill="#ffc71b"/>
      <ellipse id="Ellipse_46" data-name="Ellipse 46" cx="3.582" cy="3.582" rx="3.582" ry="3.582" transform="translate(44.983 30.759)" fill="#ffc71b"/>
      <ellipse id="Ellipse_47" data-name="Ellipse 47" cx="3.582" cy="3.582" rx="3.582" ry="3.582" transform="translate(55.814 34.567)" fill="#ffc71b"/>
      <ellipse id="Ellipse_48" data-name="Ellipse 48" cx="3.582" cy="3.582" rx="3.582" ry="3.582" transform="translate(61.159 56.099)" fill="#ffc71b"/>
      <ellipse id="Ellipse_49" data-name="Ellipse 49" cx="3.582" cy="3.582" rx="3.582" ry="3.582" transform="translate(29.746 65.326)" fill="#ffc71b"/>
      <ellipse id="Ellipse_50" data-name="Ellipse 50" cx="3.582" cy="3.582" rx="3.582" ry="3.582" transform="translate(0 66.305)" fill="#ffc71b"/>
      <ellipse id="Ellipse_51" data-name="Ellipse 51" cx="3.582" cy="3.582" rx="3.582" ry="3.582" transform="translate(65.04 89.173)" fill="#ffc71b"/>
      <ellipse id="Ellipse_52" data-name="Ellipse 52" cx="3.582" cy="3.582" rx="3.582" ry="3.582" transform="translate(98.007 55.366)" fill="#ffc71b"/>
    </g>
  </g>
</svg>
