<svg xmlns="http://www.w3.org/2000/svg" width="309.47" height="172.33" viewBox="0 0 309.47 172.33"><defs><style>.cls-1{fill:#184890;}.cls-2{fill:#121518;}.cls-3{fill:none;}.cls-4{fill:#111517;}.cls-5{fill:#ffc71b;}</style></defs><title>logo_centro_poliklinika</title><g id="Layer_2" data-name="Layer 2"><g id="EUPAP"><path class="cls-1" d="M203.92,44.14h4.7v2.35h-4.7v3.95h5.45v2.35H201V37.85h8.22V40.2h-5.34Z"/><path class="cls-1" d="M220,37.85h2.88v9.39a5.86,5.86,0,0,1-11.72,0V37.85h2.88v9.39a3,3,0,1,0,6,0Z"/><path class="cls-2" d="M201,58.05h3.32a3.43,3.43,0,1,1,0,6.86h-2v5.43H201Zm3.32,1.16h-2v4.56h2a2.28,2.28,0,0,0,0-4.56Z"/><path class="cls-2" d="M211.46,63.6h6.81V58.05h1.31V70.34h-1.31V64.7h-6.81v5.64h-1.32V58.05h1.32Z"/><path class="cls-2" d="M226.09,65l-4.68-7H223l3.81,5.67,3.82-5.67h1.53l-4.69,7v5.29h-1.33Z"/><path class="cls-2" d="M239.14,60.21a3.79,3.79,0,0,0-2.59-1.09,2,2,0,0,0-2.18,2.07c0,2.88,6,1.88,6,5.76a3.46,3.46,0,0,1-3.78,3.51,5.21,5.21,0,0,1-3.84-1.62l.83-.82a4,4,0,0,0,2.89,1.25A2.34,2.34,0,0,0,239,67c0-2.79-5.95-1.73-5.95-5.75a3.15,3.15,0,0,1,3.4-3.3A5,5,0,0,1,240,59.37Z"/><path class="cls-2" d="M242.58,58.05h1.33V70.34h-1.33Z"/><path class="cls-2" d="M252.32,69.27a4.81,4.81,0,0,0,3.58-1.41l.86.83a6.13,6.13,0,0,1-4.49,1.77,5.93,5.93,0,0,1-6.2-6.27,5.92,5.92,0,0,1,6.2-6.26,6.13,6.13,0,0,1,4.49,1.77l-.86.84a4.82,4.82,0,0,0-3.58-1.42,4.73,4.73,0,0,0-4.88,5.07A4.74,4.74,0,0,0,252.32,69.27Z"/><path class="cls-2" d="M267,66.79h-6l-1.55,3.55H258l5.45-12.29h1.27l5.44,12.29h-1.53Zm-5.53-1.19h5L264,59.74Z"/><path class="cls-2" d="M273.25,69.23h4.8v1.11h-6.12V58.05h1.32Z"/><path class="cls-2" d="M209.36,84.34h-6l-1.54,3.54h-1.53l5.46-12.28H207l5.44,12.28H210.9Zm-5.53-1.2h5l-2.51-5.86Z"/><path class="cls-2" d="M218.9,86.81a4.84,4.84,0,0,0,3.58-1.4l.86.82A6.09,6.09,0,0,1,218.85,88a6.26,6.26,0,0,1,0-12.52,6.13,6.13,0,0,1,4.49,1.77l-.86.84a4.82,4.82,0,0,0-3.58-1.42,5.07,5.07,0,0,0,0,10.14Z"/><path class="cls-2" d="M229.59,87.88h-1.32V76.7h-3.53V75.6h8.37v1.1h-3.52Z"/><path class="cls-2" d="M235.09,75.6h1.34V87.88h-1.34Z"/><path class="cls-2" d="M244.92,87.88h-1.27L238.2,75.6h1.56l4.53,10.56L248.8,75.6h1.56Z"/><path class="cls-2" d="M252.13,75.6h1.33V87.88h-1.33Z"/><path class="cls-2" d="M260.29,87.88H259V76.7h-3.53V75.6h8.37v1.1h-3.52Z"/><path class="cls-2" d="M269.69,82.58l-4.69-7h1.55l3.8,5.67,3.83-5.67h1.53l-4.69,7v5.28h-1.33Z"/><path class="cls-2" d="M287.32,75.48a6.26,6.26,0,1,1-6.2,6.26A5.92,5.92,0,0,1,287.32,75.48Zm0,11.33c2.86,0,4.81-2,4.81-5.07s-1.95-5.07-4.81-5.07a5.08,5.08,0,0,0,0,10.14Z"/><path class="cls-2" d="M296.6,75.6l7.63,9.79V75.6h1.32V87.88h-.9L297,78.09v9.79H295.7V75.6Z"/><path class="cls-2" d="M201,93.14h3.32a3.44,3.44,0,1,1,0,6.87h-2v5.42H201Zm3.32,1.16h-2v4.57h2a2.29,2.29,0,0,0,0-4.57Z"/><path class="cls-2" d="M213.2,100h-1.69v5.42h-1.37V93.14h3.44a3.31,3.31,0,0,1,3.58,3.44,3.21,3.21,0,0,1-2.63,3.34l3.12,5.51h-1.5Zm.38-5.71h-2.07v4.57h2.07a2.29,2.29,0,0,0,0-4.57Z"/><path class="cls-2" d="M220.83,98.69h4.6V99.8h-4.6v4.52h5.25v1.11h-6.57V93.14H226v1.11h-5.16Z"/><path class="cls-2" d="M234.06,95.3a3.79,3.79,0,0,0-2.6-1.09,2,2,0,0,0-2.18,2.08c0,2.87,6,1.87,6,5.75a3.46,3.46,0,0,1-3.77,3.51,5.26,5.26,0,0,1-3.85-1.61l.83-.83a4,4,0,0,0,2.89,1.25,2.34,2.34,0,0,0,2.53-2.28c0-2.79-5.95-1.74-5.95-5.76a3.16,3.16,0,0,1,3.41-3.3,5,5,0,0,1,3.54,1.44Z"/><path class="cls-2" d="M243,104.36a4.79,4.79,0,0,0,3.58-1.41l.86.83a6.13,6.13,0,0,1-4.49,1.77A6.27,6.27,0,0,1,243,93a6.13,6.13,0,0,1,4.49,1.77l-.86.85a5,5,0,1,0-3.58,8.72Z"/><path class="cls-2" d="M252.53,100h-1.69v5.42h-1.36V93.14h3.43a3.31,3.31,0,0,1,3.58,3.44,3.21,3.21,0,0,1-2.63,3.34l3.13,5.51h-1.51Zm.38-5.71h-2.07v4.57h2.07a2.29,2.29,0,0,0,0-4.57Z"/><path class="cls-2" d="M258.79,93.14h1.33v12.29h-1.33Z"/><path class="cls-2" d="M262.74,93.14h3.31a3.44,3.44,0,1,1,0,6.87h-1.94v5.42h-1.37Zm3.31,1.16h-1.94v4.57h1.94a2.29,2.29,0,0,0,0-4.57Z"/><path class="cls-2" d="M276.05,105.43h-1.31V94.25h-3.53V93.14h8.37v1.11h-3.53Z"/><path class="cls-2" d="M281.56,93.14h1.33v12.29h-1.33Z"/><path class="cls-2" d="M291.25,93a6.27,6.27,0,1,1-6.2,6.27A5.92,5.92,0,0,1,291.25,93Zm0,11.34c2.86,0,4.8-2.06,4.8-5.07s-1.94-5.08-4.8-5.08-4.83,2.06-4.83,5.08A4.71,4.71,0,0,0,291.25,104.36Z"/><path class="cls-2" d="M300.52,93.14l7.64,9.8v-9.8h1.31v12.29h-.89l-7.64-9.79v9.79h-1.31V93.14Z"/><path class="cls-3" d="M99.82,68.25a6.5,6.5,0,0,1,.21-1.6l-7.26-2.6a6.43,6.43,0,0,1-5.88,3.83,6.53,6.53,0,0,1-2.23-.4L62.31,117.4a6,6,0,0,1,1,.54l38.4-45.18A6.41,6.41,0,0,1,99.82,68.25Z"/><path class="cls-3" d="M106.26,61.81a6.92,6.92,0,0,1,1,.09l5.82-25.24a6.33,6.33,0,0,1-2-1L91.65,57.12a6.38,6.38,0,0,1,1.68,4.32,6.49,6.49,0,0,1-.24,1.72l7.24,2.59A6.43,6.43,0,0,1,106.26,61.81Z"/><path class="cls-3" d="M108.38,74.33l6.41,26.07a7,7,0,0,1,1-.09,6.43,6.43,0,0,1,6.41,5.82l53.07-1.06a6.45,6.45,0,0,1,.44-2L111.79,71.54A6.44,6.44,0,0,1,108.38,74.33Z"/><path class="cls-3" d="M117.13,113.06l5.39,46.4h.24a6.39,6.39,0,0,1,4,1.38l50.13-51.17a6.43,6.43,0,0,1-1.55-3.59l-53.06,1.05A6.44,6.44,0,0,1,117.13,113.06Z"/><path class="cls-4" d="M107.41,74.58l6.41,26.05a7.62,7.62,0,0,1,1-.23l-6.41-26.07A6.58,6.58,0,0,1,107.41,74.58Z"/><path class="cls-4" d="M120.16,26.61l16.61-15.45a6.75,6.75,0,0,1-.68-.73l-16.6,15.44A5.89,5.89,0,0,1,120.16,26.61Z"/><path class="cls-4" d="M145.14,11.48,165,33.39a6.4,6.4,0,0,1,.72-.66l-19.9-21.91A7.4,7.4,0,0,1,145.14,11.48Z"/><path class="cls-4" d="M100.33,65.75l-7.24-2.59a6.25,6.25,0,0,1-.32.89l7.26,2.6A5.59,5.59,0,0,1,100.33,65.75Z"/><path class="cls-4" d="M122.26,106.75c0,.13,0,.25,0,.37l53.06-1.05q0-.31,0-.63c0-.12,0-.25,0-.37l-53.07,1.06C122.25,106.33,122.26,106.54,122.26,106.75Z"/><path class="cls-4" d="M111.79,71.54l64,31.51a6.74,6.74,0,0,1,.45-.89L112.24,70.64A7.56,7.56,0,0,1,111.79,71.54Z"/><path class="cls-4" d="M91.65,57.12l19.47-21.51a5.21,5.21,0,0,1-.74-.67L90.92,56.43A6.78,6.78,0,0,1,91.65,57.12Z"/><path class="cls-4" d="M180.1,99.21a8.05,8.05,0,0,1,1-.18l-9.8-55a7.87,7.87,0,0,1-1,.18Z"/><path class="cls-4" d="M101.67,72.76l-38.4,45.18a6.72,6.72,0,0,1,.78.63l38.38-45.15A6,6,0,0,1,101.67,72.76Z"/><path class="cls-4" d="M53.21,123l-40.37,1.34c0,.23,0,.47,0,.71s0,.19,0,.29L53.24,124a5.37,5.37,0,0,1,0-.7C53.2,123.15,53.21,123.05,53.21,123Z"/><path class="cls-4" d="M117.13,113.06a6.66,6.66,0,0,1-1,.12l5.39,46.39a8.27,8.27,0,0,1,1-.11Z"/><path class="cls-4" d="M163.4,36.47l-41.92-5.59a6.38,6.38,0,0,1-.13,1l41.93,5.59A6.38,6.38,0,0,1,163.4,36.47Z"/><path class="cls-4" d="M83.76,67.07l-22.39,50a5.83,5.83,0,0,1,.94.34L84.66,67.48A6.68,6.68,0,0,1,83.76,67.07Z"/><path class="cls-4" d="M65.64,121a5.82,5.82,0,0,1,.29,1L109.81,109a6.26,6.26,0,0,1-.29-1Z"/><path class="cls-4" d="M176.86,109.66l-50.13,51.17a5.89,5.89,0,0,1,.74.67l50.1-51.14A6.71,6.71,0,0,1,176.86,109.66Z"/><path class="cls-4" d="M82.13,65.77a6.55,6.55,0,0,1-.61-.78L11.19,120.66a7.36,7.36,0,0,1,.61.77Z"/><path class="cls-4" d="M108.26,62.13l5.82-25.25a6.48,6.48,0,0,1-1-.22L107.29,61.9A7.23,7.23,0,0,1,108.26,62.13Z"/><circle class="cls-5" cx="141.14" cy="6.44" r="6.44"/><circle class="cls-5" cx="115.05" cy="30.52" r="6.44"/><circle class="cls-5" cx="169.7" cy="37.82" r="6.44"/><circle class="cls-5" cx="86.89" cy="61.44" r="6.44"/><circle class="cls-5" cx="106.26" cy="68.25" r="6.44"/><circle class="cls-5" cx="115.82" cy="106.75" r="6.44"/><circle class="cls-5" cx="59.64" cy="123.25" r="6.44"/><circle class="cls-5" cx="6.44" cy="125" r="6.44"/><circle class="cls-5" cx="122.76" cy="165.89" r="6.44"/><circle class="cls-5" cx="181.72" cy="105.44" r="6.44"/></g></g></svg>