<svg xmlns="http://www.w3.org/2000/svg" width="149.473" height="63.852" viewBox="0 0 149.473 63.852">
  <path id="Path_200" data-name="Path 200" d="M74.224,62.185c0-.805.125-2.112-.788-2.452v-.054h4.242c2.362,0,3.741,1,3.741,2.6A2.507,2.507,0,0,1,79.63,64.6a3.286,3.286,0,0,1,2.916,3.168A3.6,3.6,0,0,1,80.4,70.9a8.991,8.991,0,0,1-4.01.555H73.435V71.4c.895-.34.788-1.647.788-2.47V62.185h0Zm3.384,7.984c1.468.143,2.953-.537,2.953-2.238,0-1.736-1.682-2.488-3.257-2.4L76.05,65.6v4.421l1.557.144Zm-.967-5.746c1.163,0,2.829-.394,2.829-1.862a1.887,1.887,0,0,0-2.22-1.772l-1.2.125v3.508Zm10.437,2.613-.93,2.523c-.376,1-.5,1.522.357,1.844v.054H83.213V71.4c1.038-.519,1.342-1.521,1.735-2.542l2.99-7.464c.251-.645.59-1.4-.268-1.665v-.053H90.5l3.723,9.182A4.2,4.2,0,0,0,95.973,71.4v.054H92.3V71.4c.877-.394.733-.591.251-1.844l-.968-2.523h-4.51ZM89.316,61.2l-1.771,4.511h3.525L89.316,61.2Zm12.627,7.93c0,1.074,0,1.611.913,2.273v.054H99.365V71.4c.877-.447.752-1.611.752-2.452V66.3l-2.973-4.779a4.333,4.333,0,0,0-1.7-1.844h1.629a1.529,1.529,0,0,1,1.342.5l2.863,4.672,2.219-3.329c.306-.447.716-1.306-.285-1.79v-.054h3.133l-4.4,6.623Zm9.578,1.038a4.405,4.405,0,0,0,3.168-1.092h.054l-.932,2.381h-7.357V71.4c.913-.322.805-1.647.805-2.452V62.2c0-.823.108-2.13-.805-2.47v-.054h3.419v.054c-.913.34-.786,1.665-.786,2.47v7.8Zm17.005-4.726a6.386,6.386,0,0,1-6.588,6.3,6.265,6.265,0,0,1-6.532-6.211,6.363,6.363,0,0,1,6.711-6.157A6.178,6.178,0,0,1,128.526,65.443Zm-11.08-.071c0,2.506,1.773,5.084,4.583,5.084a4.347,4.347,0,0,0,4.456-4.654c0-2.613-1.665-5.138-4.492-5.138A4.413,4.413,0,0,0,117.445,65.372Zm16.472-5.692c2.4,0,3.706,1.253,3.706,2.882a3.494,3.494,0,0,1-2.846,3.15l2.578,3.24a12.532,12.532,0,0,0,2.9,2.506h-1.647a2.353,2.353,0,0,1-2.077-.9l-2.184-2.7L132.7,65.335c1.432-.215,3.1-.877,3.1-2.56a2.057,2.057,0,0,0-2.31-1.987,9.546,9.546,0,0,0-1.217.143v8.02c0,.824-.108,2.13.805,2.452v.054h-3.419V71.4c.913-.322.788-1.647.788-2.452V62.2c0-.823.125-2.13-.788-2.47v-.053h4.259ZM82.637,76.823a6.218,6.218,0,0,0-3.312-1.02,4.11,4.11,0,0,0-4.189,4.4,4.689,4.689,0,0,0,4.546,4.976,7.879,7.879,0,0,0,3.812-1.127h.054l-.913,2.076a6.347,6.347,0,0,1-2.7.537c-4.225,0-6.838-2.363-6.838-6.193a5.924,5.924,0,0,1,6.283-6.157,14.318,14.318,0,0,1,3.258.447v2.058h0Zm14.376,3.545a6.385,6.385,0,0,1-6.586,6.3,6.266,6.266,0,0,1-6.534-6.211A6.364,6.364,0,0,1,90.6,74.3,6.179,6.179,0,0,1,97.013,80.368ZM85.934,80.3c0,2.506,1.771,5.084,4.581,5.084a4.348,4.348,0,0,0,4.458-4.654c0-2.613-1.665-5.137-4.494-5.137A4.411,4.411,0,0,0,85.934,80.3Zm17.347,4.8A4.407,4.407,0,0,0,106.451,84h.053l-.93,2.381H98.217v-.054c.913-.322.805-1.647.805-2.452V77.128c0-.824.108-2.131-.805-2.47V74.6h3.419v.054c-.913.34-.788,1.664-.788,2.47v7.8l2.434.161Zm9.309,0A4.409,4.409,0,0,0,115.76,84h.053l-.93,2.381h-7.357v-.054c.913-.322.805-1.647.805-2.452V77.128c0-.824.108-2.131-.805-2.47V74.6h3.419v.054c-.913.34-.788,1.664-.788,2.47v7.8Zm6.856-.215,2.274.216a4.462,4.462,0,0,0,3.312-1.056h.054l-.805,2.345h-7.465V86.33c.913-.322.805-1.647.805-2.452V77.128c0-.824.108-2.131-.805-2.47V74.6h5.728a1.834,1.834,0,0,0,.841-.089h.053v2.094h-.053a2.511,2.511,0,0,0-2.113-.716,10.054,10.054,0,0,0-1.826.125v3.329h2.13a1.824,1.824,0,0,0,.788-.108h.053v1.9h-.053c-.287-.519-1.038-.5-1.593-.5h-1.325v4.242Zm16.5-8.2H135.9a4.38,4.38,0,0,0-3.186-1.074,4.606,4.606,0,0,0-4.921,4.707,5.038,5.038,0,0,0,5.118,5.065,9.076,9.076,0,0,0,2.489-.34V82.461c0-.823-.018-1.7-.824-2.022v-.054h2.739v.054a2.136,2.136,0,0,0-.089.769v4.117a2.04,2.04,0,0,0,.089.805,23.171,23.171,0,0,1-4.278.537c-4.583,0-7.286-2.505-7.286-6.1,0-3.848,3.06-6.247,7.392-6.247a13.475,13.475,0,0,1,2.811.3V76.68h0Zm4.982,8.2,2.274.216a4.464,4.464,0,0,0,3.312-1.056h.053l-.805,2.345H138.3V86.33c.913-.322.805-1.647.805-2.452V77.128c0-.824.108-2.131-.805-2.47V74.6h5.727a1.843,1.843,0,0,0,.843-.089h.053v2.094h-.053a2.512,2.512,0,0,0-2.113-.716,10.054,10.054,0,0,0-1.826.125v3.329h2.13a1.828,1.828,0,0,0,.788-.108h.053v1.9h-.053c-.287-.519-1.039-.5-1.593-.5h-1.325v4.242ZM86.27,95.293a6.385,6.385,0,0,1-6.586,6.3,6.266,6.266,0,0,1-6.533-6.21,6.363,6.363,0,0,1,6.713-6.157,6.176,6.176,0,0,1,6.407,6.068Zm-11.08-.072c0,2.506,1.772,5.082,4.581,5.082A4.347,4.347,0,0,0,84.23,95.65c0-2.613-1.665-5.137-4.494-5.137A4.413,4.413,0,0,0,75.19,95.221ZM89.962,98.8c0,.805-.144,2.113.752,2.453v.053H87.331v-.053c.913-.323.805-1.647.805-2.453V92.052c0-.822.108-2.13-.805-2.47v-.053h5.727a1.821,1.821,0,0,0,.843-.09h.053v2.077H93.9a2.559,2.559,0,0,0-2.113-.7,10.054,10.054,0,0,0-1.826.125v3.33h2.148a1.789,1.789,0,0,0,.771-.108h.053v1.9H92.88c-.287-.537-1.039-.5-1.593-.5H89.963V98.8h0Zm-6,6.78a3.168,3.168,0,0,0,.268-1.11v-.018h3.1v.054c-.429.125-.554.645-.554,1.055l1.182,8.79a2.12,2.12,0,0,0,.913,1.826v.053H85.413v-.053c.626-.2.733-.733.733-1.342l-1.02-8.629-4.009,10.258a4.33,4.33,0,0,1-1.576-2.166l-3.4-8.073-1.019,7.7c-.144,1.091-.268,1.879.573,2.255v.053H72.776v-.053a3.7,3.7,0,0,0,1-2.506l1.02-7.5c.071-.5.268-1.217-.554-1.665v-.054h3.133v.018a2.121,2.121,0,0,0,.251.805l3.364,7.894,2.971-7.589Zm8.276,9.147,2.274.214a4.466,4.466,0,0,0,3.312-1.055h.053l-.805,2.344H89.607v-.053c.913-.323.805-1.647.805-2.453v-6.747c0-.824.108-2.13-.805-2.47v-.054h5.727a1.834,1.834,0,0,0,.841-.089h.054v2.094h-.054a2.506,2.506,0,0,0-2.112-.716,10.043,10.043,0,0,0-1.826.126V109.2h2.13a1.827,1.827,0,0,0,.788-.108h.053v1.9h-.053c-.287-.518-1.039-.5-1.593-.5H92.238v4.241Zm7.357-7.822c0-.824.125-2.13-.788-2.4v-.054h4.386c4.08,0,6.622,2.22,6.622,5.783,0,3.525-2.7,6-6.711,6h-4.3v-.053c.9-.609.788-1.468.788-2.523v-6.749Zm1.826,7.912a6.3,6.3,0,0,0,1.308.125c2.667,0,5.046-1.395,5.046-4.492,0-3.132-1.754-4.708-4.743-4.708a7.13,7.13,0,0,0-1.612.2v8.879h0Zm10.371-7.84c0-.824.125-2.13-.788-2.47v-.054h3.4v.054c-.894.34-.786,1.665-.786,2.47v6.747c0,.807-.108,2.113.786,2.453v.053H111v-.053c.894-.323.788-1.647.788-2.453Zm13.1-.3a6.211,6.211,0,0,0-3.312-1.02,4.11,4.11,0,0,0-4.188,4.4,4.689,4.689,0,0,0,4.545,4.977,7.885,7.885,0,0,0,3.813-1.128h.053l-.913,2.077a6.354,6.354,0,0,1-2.7.537c-4.224,0-6.838-2.362-6.838-6.193a5.924,5.924,0,0,1,6.284-6.157,14.216,14.216,0,0,1,3.256.448v2.056h0Zm2.3.3c0-.824.125-2.13-.788-2.47v-.054h3.4v.054c-.894.34-.786,1.665-.786,2.47v6.747c0,.807-.108,2.113.786,2.453v.053h-3.4v-.053c.894-.323.788-1.647.788-2.453Zm6.03,6.927c0,1-.017,1.718.932,2.274v.053H130.98v-.053c.948-.555.948-1.27.948-2.274v-7.142c0-1,0-1.718-.93-2.255v-.054h2.613v.018a1.131,1.131,0,0,0,.268.448l.249.357,6.552,8.271v-6.785c0-1,.017-1.718-.932-2.255v-.054h3.15v.054c-.93.537-.93,1.253-.93,2.255v10.043a4.945,4.945,0,0,1-2.613-2.041l-6.141-7.786V113.9Zm13.451.824,2.272.214a4.464,4.464,0,0,0,3.312-1.055h.054l-.805,2.344h-7.465v-.053c.913-.323.805-1.647.805-2.453v-6.747c0-.824.108-2.13-.805-2.47v-.054h5.728a1.834,1.834,0,0,0,.841-.089h.053v2.094H150.6a2.509,2.509,0,0,0-2.113-.716,10.035,10.035,0,0,0-1.824.126V109.2H148.8a1.82,1.82,0,0,0,.788-.108h.054v1.9h-.054c-.285-.518-1.038-.5-1.593-.5h-1.323v4.241ZM69.061,65.921a3.59,3.59,0,0,1-5.1.009,3.667,3.667,0,0,1,.006-5.154,3.554,3.554,0,0,1,5.092,0,3.661,3.661,0,0,1,.006,5.142Zm-.93-5.01a.565.565,0,0,1-.12.283.318.318,0,0,1-.236.079,3.382,3.382,0,0,1-.467-.193,2.084,2.084,0,0,0-.868-.193,2.25,2.25,0,0,0-1.7.729,2.5,2.5,0,0,0-.691,1.79,2.463,2.463,0,0,0,.693,1.773,2.276,2.276,0,0,0,1.709.723A2.165,2.165,0,0,0,67.6,65.6a2.541,2.541,0,0,0,.857-.924l-.216-.152a2.546,2.546,0,0,1-.744.769,1.638,1.638,0,0,1-.895.256,1.293,1.293,0,0,1-1.137-.568,2.913,2.913,0,0,1-.391-1.652,2.967,2.967,0,0,1,.359-1.615,1.176,1.176,0,0,1,1.052-.548,1.427,1.427,0,0,1,1.035.405,2.352,2.352,0,0,1,.6,1.186h.251l-.012-1.842h-.228v0Zm-3.393-1.3a4.185,4.185,0,0,0-1.44,1.137,4,4,0,0,0-.693,1.218,4.138,4.138,0,0,0,7.1,4.023,4.218,4.218,0,0,0,.709-1.238,4.025,4.025,0,0,0,.248-1.391,4.13,4.13,0,0,0-.408-1.793,4,4,0,0,0-1.125-1.432,4.2,4.2,0,0,0-1.233-.687A4.02,4.02,0,0,0,64.738,59.611ZM2.907,86.488l.078-1.854c.039-.935.633-1.15,1.027-1.133a.763.763,0,0,1,.761.5.891.891,0,0,1,.949-.551,1.114,1.114,0,0,1,.773.363c.2.226.328.439.295,1.22l-.068,1.615-3.815-.159Zm3.188-.632.041-.978c.017-.387-.145-.618-.532-.634-.335-.014-.475.267-.486.554l-.043,1.015,1.02.044Zm-1.663-.07.039-.936c.013-.314-.1-.568-.4-.581s-.419.205-.434.566L3.6,85.75Zm2.5-3.487-.057.838L3.156,81.522l.062-.917,3.9-1.084-.058.865-.8.191-.1,1.4.766.318Zm-1.41-.575.066-.97-1.538.37,0,.01Zm1.814-4.472-.077.793-1.433-.138L3.33,78.991l.089-.936,1.727-.63-1.579-.91.087-.9,2.253,1.5ZM6.94,74.663l.286-1.877.683.1L7.5,75.555,3.729,74.98l.12-.788,3.091.471ZM4.685,69.751a1.782,1.782,0,0,1,2.444-1.2A1.842,1.842,0,1,1,6.1,72.075,1.782,1.782,0,0,1,4.685,69.751Zm3.209.939c.121-.413.036-1.069-.99-1.369s-1.45.207-1.572.62-.036,1.07.989,1.369S7.774,71.1,7.894,70.69ZM5.817,66.778l.975-1.666a1.075,1.075,0,0,1,1.538-.493.913.913,0,0,1,.487.968c.277-.2.464-.289,1.079.07.482.282.6.352.742.237l.087.051-.445.761a2.561,2.561,0,0,1-.709-.316c-.45-.263-.641-.337-.939.173l-.416.711,1.289.754-.395.674L5.817,66.778Zm2.318-.634c.209-.358.188-.6-.138-.8a.48.48,0,0,0-.713.23l-.5.858.881.515.472-.808ZM14.27,60.7a.777.777,0,0,0-1.047-.232c-.345.165-.745.638-.28,1.612.3.618.805,1.059,1.415.769a.814.814,0,0,0,.454-1.011l.72-.343a1.59,1.59,0,0,1-.891,1.985A1.741,1.741,0,0,1,12.2,62.425a1.764,1.764,0,0,1,.717-2.573,1.517,1.517,0,0,1,2.068.511l-.719.342Zm2.764-2.4a2.017,2.017,0,1,1-1.188,2.447,1.781,1.781,0,0,1,1.188-2.447Zm.949,3.205c.413-.122.918-.55.615-1.574s-.96-1.107-1.373-.985-.919.55-.615,1.574S17.57,61.634,17.982,61.511Zm3.121-.872,1.868-.337.122.68-2.652.479L19.763,57.7l.785-.141.555,3.077Zm3.2-.5,1.884-.228.083.686-2.676.324-.459-3.789.791-.1.376,3.1Zm5.044-2.911-2.021.138.055.8,1.856-.127.046.674-1.857.127.067.986,2.111-.144.046.674-2.891.2-.26-3.807,2.8-.191.046.674Zm2.692,1.053,1.6.015-.019,2.058-.532,0-.075-.479a1.405,1.405,0,0,1-1.2.569,1.781,1.781,0,0,1-1.736-2.016,1.832,1.832,0,0,1,1.885-2,1.514,1.514,0,0,1,1.663,1.3l-.8-.007A.836.836,0,0,0,32,57.079c-.569,0-1.1.383-1.108,1.362-.01,1.042.557,1.318,1.1,1.323a.944.944,0,0,0,.933-.832l-.888-.008.006-.645Zm5.311-.78-2.019-.163-.065.8,1.855.149-.054.673L35.21,58.81l-.08.986,2.109.169-.054.674L34.3,60.406,34.6,56.6l2.8.226-.054.673Zm5.7.077a2.018,2.018,0,1,1-2.2,1.6A1.782,1.782,0,0,1,43.052,57.577Zm-.666,3.276c.422.085,1.068-.054,1.281-1.1s-.328-1.428-.749-1.515-1.069.054-1.281,1.1S41.964,60.768,42.386,60.854ZM45.333,62.2l-.757-.25,1.2-3.624,2.579.852-.212.641-1.822-.6-.27.817,1.6.527-.212.641-1.595-.527-.5,1.524Zm7.5,4.3-.561-.49,2.1-2.4-.008-.007L51.726,65.54l-.589-.515,1.576-2.859-.008-.007-2.1,2.4-.56-.491L52.557,61.2l.876.766-1.46,2.721.009.006,2.493-1.817.868.759-2.513,2.874Zm4.148,1.515-.9-1.815-.718.356.825,1.667-.606.3-.825-1.667-.886.439.94,1.9-.606.3-1.286-2.6,3.42-1.694,1.246,2.515-.606.3Zm1.044.944.431,1.629a1.581,1.581,0,0,1-1.36,1.966c-.791.209-2.015.2-2.338-1.019l-.423-1.6ZM55.17,70.527l.2.75c.166.627.854.67,1.46.51,1.09-.288,1.039-.831.952-1.159l-.2-.741Zm.152,3.791-.13-.788,3.765-.625.13.787Zm2.931,2.815a.777.777,0,0,0,.562-.912c-.042-.38-.356-.913-1.429-.8-.682.075-1.265.411-1.191,1.083A.815.815,0,0,0,57,77.27l.087.793a1.59,1.59,0,0,1-1.581-1.5c-.111-1.009.491-1.808,1.8-1.952A1.764,1.764,0,0,1,59.5,76.139a1.518,1.518,0,0,1-1.162,1.785l-.087-.791Zm-2.37,2.379-.066-.795,3.8-.319.066.795Zm4.024,2.8.048.742-3.809.248-.051-.8,2.615-1.731v-.01l-2.716.177-.048-.742,3.809-.248.054.837-2.554,1.685v.011l2.652-.173Zm-.472,4.411-.08-2.025-.8.032.074,1.859-.675.026-.074-1.859-.987.04.084,2.114-.675.027-.114-2.9L60,83.888l.112,2.805-.675.027ZM6.477,91.98l.1,1.842a1.027,1.027,0,0,1-.967,1.2.869.869,0,0,1-.9-.515c-.116.308-.217.476-.9.514-.533.028-.665.036-.717.2l-.1.006-.046-.843a2.391,2.391,0,0,1,.731-.121c.5-.028.689-.069.658-.632L4.3,92.849l-1.425.08-.042-.746,3.644-.2ZM4.964,93.708c.022.395.169.581.53.56.193-.01.472-.113.447-.558l-.052-.949-.974.054.049.893Zm1.363,4.615-.2-1.924-.764.078.183,1.767-.642.067-.183-1.767-.94.1.208,2.009-.642.067-.284-2.754,3.628-.375.275,2.668ZM4.65,99.843c-.2.038-.564.2-.455.858.059.356.21.738.591.674.281-.047.312-.329.338-.725l.026-.4c.038-.6.076-1.186.868-1.318.4-.067,1.144.031,1.337,1.2a1.238,1.238,0,0,1-.929,1.6L6.307,101c.157-.047.528-.17.419-.827-.048-.285-.21-.609-.535-.554-.28.047-.3.287-.312.443l-.07.913c-.039.512-.165,1-.811,1.1-1.083.18-1.361-.907-1.414-1.222-.218-1.314.5-1.665.948-1.74l.119.721Zm3.025,5.052-.5-1.871-.741.2.457,1.718-.624.165-.456-1.718-.913.242.519,1.953-.623.167-.711-2.676,3.524-.937.689,2.592-.624.167Zm-2.316,2.35-.339-.729,3.856-.36.371.8-2.764,2.708-.35-.752.582-.529-.569-1.22Zm1.446-.169.392.843,1.117-1.02,0-.01Zm3.133,1.233,1.138,1.451a1.028,1.028,0,0,1-.1,1.54.874.874,0,0,1-1.031.092c.081.316.093.514-.443.933-.419.329-.524.411-.471.578l-.076.059-.52-.665a2.442,2.442,0,0,1,.53-.518c.391-.306.525-.449.177-.894l-.486-.619-1.124.881-.461-.588,2.871-2.251Zm-.251,2.282c.244.312.471.379.756.156a.457.457,0,0,0,.046-.713l-.586-.749-.767.6Zm3.476,2.748a.741.741,0,0,0-.237-1c-.285-.229-.859-.375-1.5.431-.409.512-.574,1.134-.07,1.537a.78.78,0,0,0,1.059-.031l.6.476a1.52,1.52,0,0,1-2.079.061,1.662,1.662,0,0,1-.105-2.536,1.685,1.685,0,0,1,2.511-.457,1.45,1.45,0,0,1,.424,1.991l-.6-.476Zm1.39,1.829-.745,1.457-.679-.348,1.66-3.248.679.347-.63,1.231,1.267.648.629-1.231.679.346-1.661,3.249-.678-.348.745-1.456-1.266-.648Zm8.491,1.329-1.9-.388-.154.75,1.742.358-.129.632-1.742-.356-.189.926,1.981.405-.129.632-2.713-.555.732-3.574,2.628.538-.129.632Zm.746-.532,1.6.2a1.51,1.51,0,0,1,1.256,1.909c-.1.776-.545,1.857-1.739,1.707l-1.568-.2Zm.366,3.086.736.092c.615.077.9-.518.974-1.113.134-1.067-.364-1.217-.687-1.258l-.725-.09-.3,2.369Zm5.991-.14c-.051.96-.652,1.339-1.57,1.29a1.562,1.562,0,0,1-1.133-.5,1.332,1.332,0,0,1-.236-.9l.13-2.414.777.042-.127,2.364a.637.637,0,0,0,.61.765c.523.028.749-.214.773-.655l.129-2.4.777.042-.129,2.368Zm3.137-1.2a.742.742,0,0,0-.818-.615c-.366.006-.9.259-.883,1.29.011.655.28,1.239.926,1.228a.776.776,0,0,0,.8-.7l.762-.013a1.52,1.52,0,0,1-1.562,1.373c-.97.016-1.678-.627-1.7-1.886a1.686,1.686,0,0,1,1.643-1.955,1.452,1.452,0,0,1,1.6,1.264l-.763.013Zm2.064,2.351-.8.07.98-3.748.876-.075,1.6,3.523-.825.072-.3-.729-1.341.116-.187.77Zm.336-1.417.926-.08-.575-1.4h-.01Zm4.494.85-.753.119-.463-2.966-1.09.17-.1-.638,2.932-.457.1.637-1.089.169Zm2.336-.447-.745.157-.753-3.569.746-.157Zm1.347-4.215a1.929,1.929,0,1,1-1.123,2.346,1.7,1.7,0,0,1,1.123-2.346Zm.923,3.06c.394-.118.876-.529.58-1.508s-.923-1.053-1.317-.935-.876.529-.58,1.508S44.391,118.007,44.784,117.888Zm3.087-4.7.628-.334,1.711,3.221-.673.357L47,114.839l-.009,0,1.22,2.3-.628.332-1.711-3.221.709-.376,2.47,1.564.009,0-1.192-2.243Zm5.362-1.068c.157.128.518.3.949-.206.233-.275.428-.637.134-.886-.217-.184-.452-.025-.773.209l-.323.239c-.487.36-.956.707-1.567.187-.309-.264-.713-.894.054-1.8a1.237,1.237,0,0,1,1.819-.318l-.475.557c-.137-.09-.47-.293-.9.213-.188.221-.331.552-.08.768a.4.4,0,0,0,.541-.047l.742-.535c.415-.3.867-.516,1.365-.092a1.283,1.283,0,0,1-.023,1.87c-.863,1.013-1.595.689-1.939.395l.475-.556Zm1.559-5.725-.912,1.707.677.36.838-1.568.569.3-.838,1.568.833.447.953-1.784.568.3-1.3,2.441-3.216-1.718,1.264-2.366.569.3Zm-.394-.757.539-1.763a1.028,1.028,0,0,1,1.322-.8.87.87,0,0,1,.666.793c.214-.248.368-.37,1.019-.172.511.156.636.195.742.058l.093.028-.247.807a2.448,2.448,0,0,1-.728-.139c-.476-.145-.67-.172-.834.367l-.23.753,1.365.416-.218.715Zm2.015-1.1c.116-.379.041-.6-.3-.71a.459.459,0,0,0-.614.37l-.278.908.932.285.263-.853Zm-.656-4.388.145-.778,3.361,1.883-.133.714-3.81.545.149-.805,2.86-.265,0-.01-2.573-1.283Zm3.885-1.418-.1.755-3.615-.482.1-.756ZM57.523,95.4a.743.743,0,0,0-.7.748c-.034.364.16.922,1.186,1.017.653.059,1.263-.144,1.323-.786a.78.78,0,0,0-.609-.868l.07-.758a1.519,1.519,0,0,1,1.2,1.7c-.089.966-.806,1.6-2.06,1.482-1.27-.117-1.85-.91-1.763-1.846a1.451,1.451,0,0,1,1.43-1.449ZM57.2,91.352l-.089,1.933.767.036.081-1.775.645.03-.082,1.776.944.043.093-2.019.646.03-.128,2.765L56.431,94l.124-2.68.645.03ZM4.565,90.2a.8.8,0,1,0-.8-.8A.8.8,0,0,0,4.565,90.2Zm53.763-.354a.8.8,0,1,0-.8-.8.8.8,0,0,0,.8.8Zm-7.208,24.34a.8.8,0,1,0-.8-.8.8.8,0,0,0,.8.8Zm-32.683,3.238a.8.8,0,1,0-.8-.8A.8.8,0,0,0,18.437,117.429Zm-.106-5.694A12.713,12.713,0,0,1,11.359,105c-1.714-4.016-2.132-11.048-2.186-14.947a121.8,121.8,0,0,1,.945-15.183c.5-3.408,1.536-6.44,3.19-7.8a17.718,17.718,0,0,1,6.5-2.9,53.917,53.917,0,0,1,11.7-1.358,53.917,53.917,0,0,1,11.7,1.358,17.712,17.712,0,0,1,6.5,2.9c1.654,1.359,2.688,4.391,3.19,7.8a121.785,121.785,0,0,1,.946,15.183c-.054,3.9-.473,10.931-2.186,14.947a12.716,12.716,0,0,1-6.972,6.737c-2.128.944-7.149,2.068-13.175,2.068-5.909,0-11.048-1.123-13.174-2.068ZM32.925,87.859c.655,0,1.625-.007,2.06-.007a.4.4,0,0,0-.051-.665c-.235-.182-1.328-.519-2.008-.944v1.615Zm0,12.713c.786,0,1.661,0,2.06,0,.348-.169.125-.465-.051-.6-.3-.216-1.067-.683-2.008-1.277v1.871ZM30.089,91.3c-1.19,0-2.113,0-2.342,0a.32.32,0,0,0-.1.421c.442.236,1.357.743,2.438,1.337V91.3Zm0-12.056H28.005a.4.4,0,0,0,.074.694,22.647,22.647,0,0,0,2.01,1.252V79.241Zm7.554-1.183a.626.626,0,1,0-.626-.626A.626.626,0,0,0,37.643,78.057ZM21.7,72.86h1.89l1.477-1.624H23.175Zm-2.836,0h1.89l1.477-1.624h-1.89Zm-2.835,0h1.891l1.477-1.624H17.5Zm7.148-2.275h1.891l-1.477-1.624H21.7l1.476,1.624Zm-2.835,0h1.89l-1.477-1.624h-1.89Zm-2.836,0h1.89l-1.477-1.624H16.026L17.5,70.585Zm-3.014,0h2.1l-1.233-1.337Zm25.345.65H37.945l1.477,1.624h1.891Zm2.836,0h-1.89l1.477,1.624h1.89Zm2.836,0H43.617l1.477,1.624h1.89Zm-4.2-2.275H39.422l-1.477,1.624h1.891Zm2.835,0h-1.89l-1.477,1.624h1.89Zm2.836,0h-1.89l-1.477,1.624h1.891Zm-10.132,34.71a2.956,2.956,0,0,0,2.382-1.685,3.745,3.745,0,0,0-.107-3.189c-.59-1.035-2.358-1.929-3.19-2.451-.5-.314-1.683-.979-3.012-1.719V91.3c1.6,0,3.129,0,3.9,0a2.878,2.878,0,0,0,2.47-1.351,3.148,3.148,0,0,0,.129-3.145c-.443-.857-1.89-1.433-2.732-1.921-.709-.411-2.205-1.23-3.765-2.1V79.241h4.43c1.123,0,2.245-.177,2.644-.856a1.916,1.916,0,0,0,0-1.772c-.463-.662-.872-.857-1.166-.857H32.924V72.329c0-.472.619-.635.974-.738a3.1,3.1,0,0,1,1.536.089l1.093,1.182h1.891l-1.477-1.624H35.6c-.221,0-.236-.65-.008-.65h1.345l1.477-1.624H36.527L35.4,70.24a6.233,6.233,0,0,0-2.607.259,2.5,2.5,0,0,0-1.285,1.876A2.507,2.507,0,0,0,30.221,70.5a6.233,6.233,0,0,0-2.607-.259l-1.13-1.277h-1.89l1.477,1.624h1.344c.229,0,.214.65-.007.65H26.071l-1.477,1.624h1.89l1.093-1.182a3.084,3.084,0,0,1,1.536-.089c.355.1.976.266.976.738v3.427H27.311a4.3,4.3,0,0,0-3.427,2.127,2.637,2.637,0,0,0,.827,3.368c.757.5,3.145,1.931,5.378,3.272V87.86c-1.685,0-3.251-.007-3.782-.007a3.1,3.1,0,0,0-2.718,2.554c-.3,1.537.3,2.718,1.949,3.723.78.473,2.661,1.616,4.551,2.787v3.656c-1.1,0-2.063,0-2.453,0a3.83,3.83,0,0,0-2.807.761,5.322,5.322,0,0,0-1.477,2.275,1.754,1.754,0,0,0-.266,1.063,10.808,10.808,0,0,1,2.659-1h4.344v3.514a1.745,1.745,0,0,0,.272.938,1.274,1.274,0,0,0,1.144.421,1.276,1.276,0,0,0,1.145-.421,1.743,1.743,0,0,0,.274-.938v-3.514h3.928Zm-21.5-31.1,1.233-1.337h-2.1Zm32.3-3.324-1.233,1.337h2.1Zm.864,1.987h-2.1l1.233,1.337Z" transform="translate(-2.833 -56.419)" fill="#fff" fill-rule="evenodd"/>
</svg>
