<svg xmlns="http://www.w3.org/2000/svg" width="140.412" height="25.541" viewBox="0 0 140.412 25.541">
  <path id="Subtraction_1" data-name="Subtraction 1" d="M-47.288-1790.46a12.68,12.68,0,0,1-9.017-3.746,12.68,12.68,0,0,1-3.751-9.024,12.677,12.677,0,0,1,3.751-9.025A12.681,12.681,0,0,1-47.288-1816,12.793,12.793,0,0,1-34.5-1803.23,12.793,12.793,0,0,1-47.288-1790.46Zm-.732-7.107v0l.731,5.827.747-5.831,2.246,5.441-.8-5.833,3.57,4.711-2.279-5.442,4.658,3.605-3.6-4.659,5.441,2.278-4.692-3.57,5.831.781-5.458-2.227,5.867-.748-5.867-.748,5.458-2.228-5.831.8,4.692-3.57-5.441,2.279,3.6-4.676-4.658,3.622,2.279-5.441-3.57,4.693.8-5.849-2.246,5.458-.747-5.848-.732,5.848-2.245-5.458.8,5.849-3.57-4.693,2.279,5.441-4.66-3.622,3.605,4.676-5.441-2.279,4.693,3.57-5.848-.8,5.474,2.228-5.865.748,5.865.748-5.474,2.227,5.848-.781-4.693,3.57,5.441-2.278-3.605,4.659,4.66-3.605-2.279,5.442,3.57-4.711-.8,5.833,2.243-5.437Zm40.5,5.967a8.386,8.386,0,0,1-4.883-1.552,7.306,7.306,0,0,1-2.753-6.219c0-6.188,3.719-8.384,6.9-8.384a5.02,5.02,0,0,1,4.084,1.963c1.161,1.479,1.749,3.68,1.749,6.54h-9.778a6.21,6.21,0,0,0,1.513,4.109,5.534,5.534,0,0,0,4.167,1.537s.056,0,.165,0a9.569,9.569,0,0,0,3.933-1.043v2.091A14.774,14.774,0,0,1-7.518-1791.6Zm-1.139-14.078a3.118,3.118,0,0,0-3.035,2.321,7.526,7.526,0,0,0-.434,2.321h6.8c-.009-.074-.014-.185-.021-.326C-5.4-1802.543-5.558-1805.678-8.657-1805.678Zm-98.67,14.078a8.382,8.382,0,0,1-4.881-1.552,7.306,7.306,0,0,1-2.752-6.219,8.919,8.919,0,0,1,2.285-6.532,6.564,6.564,0,0,1,4.618-1.852,5.02,5.02,0,0,1,4.089,1.963c1.156,1.477,1.743,3.677,1.743,6.54h-9.76a6.216,6.216,0,0,0,1.512,4.113,5.51,5.51,0,0,0,4.15,1.532s.057,0,.166,0a9.508,9.508,0,0,0,3.931-1.043v2.091A14.656,14.656,0,0,1-107.327-1791.6Zm-1.139-14.078a3.118,3.118,0,0,0-3.035,2.321,7.526,7.526,0,0,0-.434,2.321h6.818c-.012-.081-.019-.206-.029-.364C-105.215-1802.572-105.4-1805.678-108.465-1805.678Zm45.516,14.026a2.775,2.775,0,0,1-2.754-2.194,7.573,7.573,0,0,1-4.794,2.126,4.453,4.453,0,0,1-3.417-1.377,4.039,4.039,0,0,1-1.071-2.652,5.119,5.119,0,0,1,1.241-3.335c1.219-1.375,3.216-2.073,5.934-2.073h1.819v-1.089a3.89,3.89,0,0,0-.672-2.72,2.479,2.479,0,0,0-1.964-.782,7.5,7.5,0,0,0-4.628,1.184c-.149.091-.29.177-.439.261v-2.21a13.234,13.234,0,0,1,5.373-1.309c3.4,0,5.118,1.688,5.118,5.016v6.869a3.017,3.017,0,0,0,.624,1.887,1.385,1.385,0,0,0,1.029.412,2.13,2.13,0,0,0,.286-.02l.288,1.48A4.272,4.272,0,0,1-62.95-1791.652Zm-5.132-7.924a7.379,7.379,0,0,0-2.084.5,2.965,2.965,0,0,0-2.083,2.715,2.58,2.58,0,0,0,.656,1.72,2.764,2.764,0,0,0,2.081.746,5.282,5.282,0,0,0,3.537-1.528c-.016-.205-.016-.413-.016-.614v-3.536Zm-25.49,7.907a5.263,5.263,0,0,1-4.675-2.468,9.694,9.694,0,0,1-1.36-5.234A10.141,10.141,0,0,1-98-1804.962a6.266,6.266,0,0,1,5.4-2.825,5.619,5.619,0,0,1,4.472,2.194v-8.877h2.652v22.631H-88.13v-2.924A6.909,6.909,0,0,1-93.571-1791.668Zm1.029-14.117c-.674,0-4.038.317-4.038,6.567,0,.028-.029,2.769,1.4,4.22a3.022,3.022,0,0,0,2.24.9,6.406,6.406,0,0,0,4.811-2.738v-6.989a6.805,6.805,0,0,0-4.284-1.955S-92.459-1805.785-92.542-1805.785Zm64.2,13.948H-31.1v-15.592h2.756v2.788c.882-1.008,3.2-3.35,5.643-3.35a4.046,4.046,0,0,1,3.382,1.569,4.757,4.757,0,0,1,.921,2.767v11.817h-2.72v-11.409c0-.022-.177-2.193-2.177-2.193-1.858,0-3.51,1.112-5.049,3.4v10.2Zm-107.206,0H-138v-21.05h3.893l6.088,16.646,6.138-16.646h3.469v21.049h-2.568v-17.446l-6,16.05h-2.7l-5.866-16.016v17.411Zm57.063,0h-2.652v-15.592h2.652v15.591Zm77.23-13.315a.971.971,0,0,1-.715-.22.756.756,0,0,1-.256-.612h.308a.518.518,0,0,0,.144.38.744.744,0,0,0,.519.182c.147,0,.628-.029.628-.409,0-.253-.1-.341-.51-.425l-.493-.119a.58.58,0,0,1-.51-.562.742.742,0,0,1,.833-.748c.883,0,.922.575.935.764H-.682a.535.535,0,0,0-.595-.493c-.132,0-.562.031-.562.426,0,.207.154.272.289.306l.7.153a.64.64,0,0,1,.545.646C-.308-1805.205-1.036-1805.153-1.259-1805.153Zm1.665-.048H.1v-2.415h.46l.7,2.04.681-2.04h.476v2.414H2.089v-1.429c0-.023,0-.074,0-.14.005-.129.012-.316.012-.471H2.089l-.68,2.04H1.085l-.679-2.023v2.024Zm-78.895-5.086h-2.652v-2.6h2.652v2.6Z" transform="translate(138 1816)" fill="#fff"/>
</svg>
