<svg xmlns="http://www.w3.org/2000/svg" width="140.411" height="47.2" viewBox="0 0 140.411 47.2">
  <path id="Union_1" data-name="Union 1" d="M-391.833-1768.8a.511.511,0,0,1-.381-.135.446.446,0,0,1-.117-.319.759.759,0,0,1,.707-.749,2.36,2.36,0,0,0,1.909-1.8l2.643-10.711a.7.7,0,0,0-.074-.6.489.489,0,0,0-.406-.165,1.3,1.3,0,0,0-.316.045.58.58,0,0,1-.147.021.361.361,0,0,1-.365-.3,1.072,1.072,0,0,1,.677-1.089l3.8-1.848a.534.534,0,0,1,.235-.054,1.12,1.12,0,0,1,.906.7,10.894,10.894,0,0,1,3.488-.669c.175,0,.341.007.493.022a4.276,4.276,0,0,1,3.215,1.589,5.47,5.47,0,0,1,.586,4.421,8.939,8.939,0,0,1-2.407,4.531,9.605,9.605,0,0,1-4.278,2.47,7.156,7.156,0,0,1-1.789.2,4.354,4.354,0,0,1-2.506-.535l-.392,1.909a1.674,1.674,0,0,0,.706,1.637.911.911,0,0,1,.523.913c-.069.294-.374.481-.839.512Zm8.427-14.151-1.471,6.34a.971.971,0,0,0,.208.816,2.22,2.22,0,0,0,1.535.82c.062,0,.122.005.182.005,2.792,0,4.374-3.689,4.715-6.014l0-.017c.136-.954.34-2.395-.294-3.225a1.762,1.762,0,0,0-1.241-.648,3.43,3.43,0,0,0-.438-.027C-381.56-1784.9-383.126-1784.171-383.406-1782.951Zm-22.923,14.151a.5.5,0,0,1-.372-.133.441.441,0,0,1-.114-.314.764.764,0,0,1,.71-.755,2.357,2.357,0,0,0,1.909-1.8l2.644-10.711a.7.7,0,0,0-.074-.6.492.492,0,0,0-.407-.165,1.3,1.3,0,0,0-.316.045.581.581,0,0,1-.148.021.365.365,0,0,1-.369-.3,1.066,1.066,0,0,1,.682-1.083l3.8-1.848a.533.533,0,0,1,.235-.053,1.119,1.119,0,0,1,.907.7,10.856,10.856,0,0,1,3.476-.669c.175,0,.339.008.49.022a4.3,4.3,0,0,1,3.228,1.6,5.456,5.456,0,0,1,.589,4.414,8.929,8.929,0,0,1-2.409,4.531,9.619,9.619,0,0,1-4.291,2.47,7.05,7.05,0,0,1-1.778.2,4.43,4.43,0,0,1-2.518-.535l-.376,1.909a1.658,1.658,0,0,0,.707,1.637.907.907,0,0,1,.522.91c-.069.3-.38.485-.853.516Zm8.443-14.151-1.471,6.34a.97.97,0,0,0,.206.814,2.22,2.22,0,0,0,1.535.822c.062,0,.122.005.182.005,2.793,0,4.376-3.689,4.717-6.014l.012-.088c.131-.994.312-2.354-.312-3.163a1.757,1.757,0,0,0-1.232-.64,3.435,3.435,0,0,0-.437-.027C-396.04-1784.9-397.607-1784.171-397.886-1782.951Zm-44.539,13.927c-4.071-.15-9.644-2.6-9.584-7.286.029-2.2,2.958-4,5.152-4.088h0c1.578-.061,4.4,1.487,4.071,3.86-.2,1.367-2.462,1.351-2.763.66-.676-1.607-3.365-1.546-4-.358-1.036,2,1.683,4.926,7.406,5.391,2.494.194,6.2-1.082,6.385-3.936.24-3.56-4.807-5.8-7.841-8.021-1.7-1.262-3.425-2.269-2.975-5.918.436-3.5,5.123-5.544,8.713-5.544,4.432.031,7.466,2.194,7.481,5.032a2.881,2.881,0,0,1-2.913,2.779c-1.173-.058-2.749-1.02-2.749-2.192,0-1.593,1.832-1.818,2.749-1.743-.376-1.487-2.794-2.314-4.417-2.269-2.659.09-5.107,1.908-5.077,4.012.045,3.139,4.342,4.22,6.67,6.127,2.088,1.714,4.6,4.1,4.056,7.091a2.2,2.2,0,0,0,1.636-1.307l3.29-12.934c.331-1.306-.42-1.457-1.2-1.217-.736.227-.751-.93-.076-1.215l4.492-1.938c.482-.211.887.511.736,1.216l-1.7,7.2c1.578-.632,3.125-1.5,4.747-1.457,2.118.059,3.3,1.426,2.9,3.23l-1.682,7.436c-.105.51.331,1.036.721,1.382.631.54.391,1.442-.8,1.442h-5.152c-1.156,0-.977-1.247-.076-1.442a2.531,2.531,0,0,0,1.922-1.549l1.517-6.218c.375-1.518-.571-1.743-1.607-1.863a6.641,6.641,0,0,0-2.809.736l-1.773,7.105a1.581,1.581,0,0,0,.556,1.788c.826.571.631,1.532-.8,1.532h-5.574c-1.579,2.785-5.011,4.486-9.077,4.487Q-442.141-1769.013-442.426-1769.024Zm83.415-12.92a2.347,2.347,0,0,1,.016-.345h7.661l-2.462,2.6a3.587,3.587,0,0,0,.9,5.229c1.684,1.081,4.162,1.081,5.468-.571l3.08-7.256h6.745a2.64,2.64,0,0,1,.014.345,10.727,10.727,0,0,1-10.711,10.711A10.726,10.726,0,0,1-359.011-1781.944Zm-11.22,8.953a4.475,4.475,0,0,1-3.494-1.819c-.922-1.319-1.074-3.189-.442-5.406a9.856,9.856,0,0,1,3.086-4.752,7.667,7.667,0,0,1,4.874-1.948c.14,0,.283.005.421.015a4.678,4.678,0,0,1,4.163,3.321c.159.737.2,1.3-.1,1.674-.278.344-.83.5-1.737.5h-6.684a12.022,12.022,0,0,0-.886,3.981,2.33,2.33,0,0,0,2.6,2.523h.031a5.33,5.33,0,0,0,4.085-2.493,1.439,1.439,0,0,1,1.071-.732.41.41,0,0,1,.366.183c.148.231.091.656-.16,1.2a6.263,6.263,0,0,1-2.8,2.738,8.724,8.724,0,0,1-3.964,1.031C-369.942-1772.977-370.089-1772.981-370.231-1772.991Zm1.051-9.99h2.81c1.036,0,1.157-.5,1.2-1.1a.558.558,0,0,0-.148-.419,2.287,2.287,0,0,0-1.43-.5l-.123,0A2.29,2.29,0,0,0-369.18-1782.981Zm-47.442,8.172a4.4,4.4,0,0,1-.881-2.28,7.1,7.1,0,0,1,.178-2.421,10.016,10.016,0,0,1,2.677-4.987,8.735,8.735,0,0,1,6.035-2.328c.074,0,.15,0,.226,0a5.009,5.009,0,0,1,4.133,1.851,5.472,5.472,0,0,1,.989,4.565,10.092,10.092,0,0,1-2.781,4.988,8.522,8.522,0,0,1-5.857,2.329c-.091,0-.185,0-.276,0C-414.231-1773.092-415.727-1773.67-416.622-1774.809Zm4.425-8.521a10.254,10.254,0,0,0-1.418,3.685c-.352,2-.2,3.47.442,4.265a1.906,1.906,0,0,0,1.481.692c.059,0,.12,0,.186,0a3.6,3.6,0,0,0,3.217-1.962,11.268,11.268,0,0,0,1.238-3.84c.237-1.35.408-3.024-.373-4a2.229,2.229,0,0,0-1.731-.768c-.039,0-.077,0-.114,0A3.626,3.626,0,0,0-412.2-1783.33Zm59.647,8.372a3.367,3.367,0,0,1-1.416-2.361,2.422,2.422,0,0,1,.6-1.967l8.2-8.682a2.626,2.626,0,0,1-.285-1.217,2.633,2.633,0,0,1,2.6-2.659,2.632,2.632,0,0,1,2.6,2.659,2.632,2.632,0,0,1-2.6,2.659h-.021a3.229,3.229,0,0,1-.34-.014l-4.447,10.679a2.733,2.733,0,0,1-2.676,1.544A4.041,4.041,0,0,1-352.55-1774.958Zm-104.324-14.271a7.764,7.764,0,0,1-5.539-2.49,7.18,7.18,0,0,1-2.1-5.29,5.7,5.7,0,0,1,2.681-4.214,10.7,10.7,0,0,1,6.1-1.827,11.671,11.671,0,0,1,1.779.137,3.659,3.659,0,0,1,2.528,1.6,1.638,1.638,0,0,1,.085,1.48,1.935,1.935,0,0,1-1.754,1.311,2.048,2.048,0,0,1-1.04-.3,5.876,5.876,0,0,1-.78-.6,4.809,4.809,0,0,0-3.11-1.486h-.022a3.731,3.731,0,0,0-2.634,1.18,5.177,5.177,0,0,0-1.49,3.538,4.809,4.809,0,0,0,2.064,3.514,6.865,6.865,0,0,0,4.052,1.559c.1,0,.2,0,.3-.01a12.32,12.32,0,0,0,8.8-4.143,23.772,23.772,0,0,0,4.288-8.446l2.164-6.806a3.4,3.4,0,0,0,0-2.767,2.231,2.231,0,0,0-1.618-.959,17.711,17.711,0,0,0-3.055-.288,10.441,10.441,0,0,0-5.432,1.385,3.819,3.819,0,0,0-1.853,2.784,2.436,2.436,0,0,0,.771,2.113,2.362,2.362,0,0,0,1.533.711,1.539,1.539,0,0,0,1.262-.711,2.747,2.747,0,0,1,2.208-1.13,2.546,2.546,0,0,1,.406.033,2.035,2.035,0,0,1,1.631,1.053,1.217,1.217,0,0,1-.279,1.214,5.191,5.191,0,0,1-4.038,1.819h-.107a6.192,6.192,0,0,1-4.524-1.863,4.059,4.059,0,0,1-.974-3.214,5.32,5.32,0,0,1,2.608-4.026,10.6,10.6,0,0,1,5.233-1.411c.386-.014.789-.021,1.2-.021,1.741,0,3.423.12,5.2.248,1.205.086,2.446.175,3.71.223,1.441.06,1.835,1.023,1.984,2.45l1.172,10.785c.082.727.246,1.08.5,1.08s.6-.333,1.137-1.08l8.383-11.776c.68-.956,1.325-1.747,2.332-1.747a2,2,0,0,1,.281.02,6.546,6.546,0,0,0,.9.058c.5,0,1.007-.045,1.5-.087s1-.087,1.492-.087c.224,0,.431.008.631.027a.868.868,0,0,1,.791.922.581.581,0,0,1-.583.608h-.076c-1.383,0-2.45,1.194-2.926,3.276l-2.719,11.522c-.223.955-.239,2.466.631,2.717.749.2,1.274.639,1.225,1.022-.043.325-.489.51-1.225.51h-6.219a1.007,1.007,0,0,1-1.033-.632c-.056-.284.157-.547.582-.72a3.621,3.621,0,0,0,1.984-2.718l2.343-9.524c.183-.745.229-1.162.141-1.274a.077.077,0,0,0-.063-.031c-.134,0-.4.279-.8.855l-9.75,13.774h-2.344L-437.8-1807.9c-.071-.614-.235-.98-.437-.98s-.408.366-.554.98a41.909,41.909,0,0,1-3.466,9.966,18.307,18.307,0,0,1-5.922,6.709c-2.525,1.767-6.156,1.986-8.668,2Zm109.339-5.707a4.452,4.452,0,0,1-3.488-1.8c-.926-1.318-1.08-3.194-.446-5.424a9.939,9.939,0,0,1,3.092-4.751,7.655,7.655,0,0,1,4.867-1.948c.141,0,.284.005.423.015a4.67,4.67,0,0,1,4.16,3.318c.167.73.216,1.292-.084,1.668-.278.348-.833.511-1.748.511h-6.672a11.81,11.81,0,0,0-.9,3.982,2.687,2.687,0,0,0,.838,2.011,2.685,2.685,0,0,0,1.76.513h.029a5.326,5.326,0,0,0,4.087-2.495,1.437,1.437,0,0,1,1.07-.731.41.41,0,0,1,.368.184c.148.23.091.654-.159,1.193-1.077,2.36-4.285,3.77-6.763,3.77C-347.245-1794.923-347.391-1794.928-347.534-1794.937Zm1.052-9.991h2.809c1.062,0,1.174-.519,1.2-1.1a.56.56,0,0,0-.148-.421,2.277,2.277,0,0,0-1.428-.495c-.04,0-.083,0-.125,0A2.29,2.29,0,0,0-346.482-1804.927Zm-69.462,9.99a4.45,4.45,0,0,1-3.488-1.8c-.926-1.319-1.081-3.195-.448-5.426a9.868,9.868,0,0,1,3.085-4.751,7.642,7.642,0,0,1,4.862-1.948c.14,0,.283,0,.421.014a4.675,4.675,0,0,1,4.161,3.319c.159.738.2,1.3-.1,1.675-.277.343-.829.5-1.737.5h-6.67a11.938,11.938,0,0,0-.887,3.982c.1,1.722.929,2.524,2.6,2.524h.029a5.329,5.329,0,0,0,4.087-2.494,1.434,1.434,0,0,1,1.06-.731.406.406,0,0,1,.363.181c.148.23.1.655-.146,1.2a6.26,6.26,0,0,1-2.8,2.739,8.721,8.721,0,0,1-3.964,1.031C-415.655-1794.923-415.8-1794.928-415.944-1794.937Zm1.052-9.991h2.8c1.049,0,1.172-.5,1.216-1.1a.558.558,0,0,0-.148-.419,2.285,2.285,0,0,0-1.43-.5c-.04,0-.083,0-.125,0A2.29,2.29,0,0,0-414.892-1804.928Zm33.651,9.945a4.405,4.405,0,0,1-3.622-1.648,5.115,5.115,0,0,1-.936-2.542,7.6,7.6,0,0,1,.2-2.66,9.349,9.349,0,0,1,3.047-4.739,7.96,7.96,0,0,1,5.019-2.035c1.482,0,3.376.407,3.983,2.344a1.82,1.82,0,0,1-.2,1.545,1.928,1.928,0,0,1-1.427.828,1.313,1.313,0,0,1-.156.009,1.455,1.455,0,0,1-1.331-1.556,1.568,1.568,0,0,0-1.565-1.431c-.034,0-.068,0-.1,0-1.225.091-3,2.02-3.694,4.747-.534,2.11-.442,3.772.259,4.681a1.915,1.915,0,0,0,1.558.742h.075a5.416,5.416,0,0,0,4.325-2.6,1.189,1.189,0,0,1,.9-.575.612.612,0,0,1,.554.341.9.9,0,0,1-.141.94c-1.39,1.874-3.147,3.607-6.56,3.607Zm-16.766-.314a.582.582,0,0,1-.488-.2.635.635,0,0,1-.054-.568,9.8,9.8,0,0,1-3.86.691h-.13a4.451,4.451,0,0,1-3.739-1.65,4.733,4.733,0,0,1-.758-4.03,11.029,11.029,0,0,1,3.161-5.539,8.89,8.89,0,0,1,5.674-2.182c.028,0,.055,0,.083,0a4.476,4.476,0,0,1,2.05.708l.825-3.245c.184-.751-.156-.877-.825-1.052a.687.687,0,0,1-.567-.587c-.028-.343.235-.669.7-.869l4.145-1.728a.694.694,0,0,1,.265-.06.34.34,0,0,1,.282.132.912.912,0,0,1,.068.753l-3.935,15.819a1.873,1.873,0,0,0,.766,2.282.911.911,0,0,1,.486.923c-.068.257-.315.4-.7.4Zm-.406-11.507c-3.3.05-4.525,3.893-4.9,5.543a3.938,3.938,0,0,0,.448,3.324,2.221,2.221,0,0,0,1.76.836,2.613,2.613,0,0,0,2.614-1.606l1.863-7.617a3.78,3.78,0,0,0-1.72-.481Zm29.353,11.161h-5.033a.906.906,0,0,1-.957-.624c-.049-.291.157-.546.551-.683a3.137,3.137,0,0,0,1.939-2.134l1.366-5.677a.531.531,0,0,0-.061-.468c-.166-.211-.533-.239-.9-.239h-.18a.434.434,0,0,1-.467-.307c-.049-.216.1-.526.532-.73l4.085-1.922a.849.849,0,0,1,.362-.094.441.441,0,0,1,.355.165,1.215,1.215,0,0,1,.11.981l-1.893,8.772-.012.057c-.133.632-.285,1.348.341,1.595a.751.751,0,0,1,.478.859.523.523,0,0,1-.48.468A.486.486,0,0,1-369.059-1795.643Zm-18.132,0h-5.046a.894.894,0,0,1-.942-.622c-.049-.292.157-.547.551-.685a3.078,3.078,0,0,0,1.924-2.134l1.382-5.677a.528.528,0,0,0-.062-.468c-.166-.211-.532-.239-.9-.239h-.182a.436.436,0,0,1-.471-.305c-.049-.216.1-.526.537-.732l4.071-1.922a.853.853,0,0,1,.364-.094.45.45,0,0,1,.365.171,1.186,1.186,0,0,1,.1.975l-1.891,8.772,0,.018c-.137.648-.291,1.381.333,1.633a.755.755,0,0,1,.49.862.52.52,0,0,1-.479.465A.486.486,0,0,1-387.192-1795.643Zm28.287.014a.338.338,0,0,1-.331-.333.957.957,0,0,1,.8-.974c.648-.166,1.458-.589,1.607-1.232l1.518-6.669a1.058,1.058,0,0,0-.211-.922,2.017,2.017,0,0,0-1.539-.641,2.29,2.29,0,0,0-.37.03l-.13.024c-1.1.2-2.23.406-2.65,2.155l-1.4,5.678a1.669,1.669,0,0,0,.585,1.577c.364.272.548.632.46.9-.078.237-.359.367-.789.367h-5.828c-.313,0-.5-.1-.537-.283-.045-.254.236-.579.627-.724a3.47,3.47,0,0,0,2.029-2.163l1.561-5.859a.234.234,0,0,0-.025-.187c-.1-.163-.415-.229-.716-.294a2.782,2.782,0,0,1-.444-.119.531.531,0,0,1-.376-.46,1.035,1.035,0,0,1,.66-.818l3.306-1.651a1.467,1.467,0,0,1,.654-.17,1.206,1.206,0,0,1,1.118.935,13.669,13.669,0,0,1,4.215-.891c.088,0,.177,0,.263.005a3.373,3.373,0,0,1,2.584.913,2.7,2.7,0,0,1,.286,2.3l-1.444,6.459c-.164.8.04,1.365.556,1.562a.842.842,0,0,1,.557.917c-.068.357-.389.57-.858.57Zm-111.011-6.4c-2.151-.085-3.649-.622-4.577-1.641a4.757,4.757,0,0,1-1.056-3.587c.14-2.6,1.832-4.293,2.953-5.416.19-.19.369-.37.518-.532a5.556,5.556,0,0,1-1.592-.54,4.764,4.764,0,0,0-1.83-.557h-.049a1.834,1.834,0,0,0-1.427,1.1.75.75,0,0,0-.056.7.33.33,0,0,0,.3.151,1.084,1.084,0,0,0,.646-.307,1.081,1.081,0,0,1,.665-.227.892.892,0,0,1,.3.048.94.94,0,0,1,.541.434.257.257,0,0,1,0,.227,2.069,2.069,0,0,1-1.442.962,1.551,1.551,0,0,1-.223.016,1.772,1.772,0,0,1-1.744-1.639,2.135,2.135,0,0,1,.571-1.6,4.34,4.34,0,0,1,3.019-1.122l.137,0a5.508,5.508,0,0,1,2.14.524l.047.018a5.942,5.942,0,0,0,2.3.544l.105,0a5.732,5.732,0,0,1,2.147-.781,3.015,3.015,0,0,1,.374-.023,1.775,1.775,0,0,1,1.546.64.993.993,0,0,1-.059,1.02c-.466.842-2.117.842-3,.842-.231,0-.457-.005-.675-.007h-.016c-.564,0-1.1-.009-1.7-.051-.728.87-2.742,3.841-2.448,6.008a4.572,4.572,0,0,0,1.284,2.695,4.044,4.044,0,0,0,2.727,1.151c.05,0,.1,0,.15,0a3.42,3.42,0,0,0,2.758-1.335,2.966,2.966,0,0,0,.442-2.695,1.268,1.268,0,0,1,.043-1,.214.214,0,0,1,.172-.1c.118,0,.251.11.385.317a2.591,2.591,0,0,1,.406,1.622,4.673,4.673,0,0,1-1.249,2.763,4.409,4.409,0,0,1-3.308,1.388C-469.769-1802.025-469.843-1802.026-469.916-1802.03Zm2.809-12.512a4.624,4.624,0,0,0-2.089.856,3.55,3.55,0,0,0,1.207.192,5.991,5.991,0,0,0,.882-.071c.535-.1.757-.379.736-.6-.015-.175-.2-.38-.684-.38Zm7.42,10.186a2.631,2.631,0,0,1-1.857-1.112,2.852,2.852,0,0,1-.441-2.27,4.511,4.511,0,0,1,4.191-3.358c.081,0,.162,0,.24.008a2.4,2.4,0,0,1,2.193,1.652.831.831,0,0,1-.156.724,1.051,1.051,0,0,1-.806.374h-3.529a4.26,4.26,0,0,0-.285,1.788c.06,1.026.69,1.174,1.276,1.232.029,0,.059,0,.089,0a2.653,2.653,0,0,0,1.8-1.071.591.591,0,0,1,.439-.3.211.211,0,0,1,.185.1.805.805,0,0,1-.1.7,3.03,3.03,0,0,1-2.794,1.561A3.782,3.782,0,0,1-459.688-1804.355Zm1.458-5.7a2.265,2.265,0,0,0-1.157.841h1.232a.85.85,0,0,0,.679-.227.336.336,0,0,0,.058-.3c-.061-.233-.362-.339-.615-.339h0A.781.781,0,0,0-458.23-1810.05Zm-11.522,5.423c-.526,0-.526-.541-.166-.661a1.089,1.089,0,0,0,.632-.631l1.607-4.867c.722-2.147,3.951-4.356,6.684-4.492,1.157-.06,2.164.256,2.479,1.1.21.616-.375.871-.992.676-.735-.225-1.141-1.1-2.147-.9a5.469,5.469,0,0,0-4.176,3.545,4.206,4.206,0,0,1,2.209-.465,1.739,1.739,0,0,1,1.742,2.238l-.9,3.319c-.03.136.181.226.285.316.226.211.27.752-.2.752H-464.3c-.391,0-.572-.406-.346-1.142l.857-2.929a1.116,1.116,0,0,0-1.021-1.578,2.1,2.1,0,0,0-1.758,1.5l-.871,2.839a.734.734,0,0,0,.316.751c.27.18.285.63-.046.63Zm101.624-7.916a1.3,1.3,0,0,1-.585-.835,2.138,2.138,0,0,1,.3-1.6,2.036,2.036,0,0,1,1.638-1.023,1.237,1.237,0,0,1,.661.182,1.745,1.745,0,0,1,.285,2.434,2.038,2.038,0,0,1-1.641,1.022A1.239,1.239,0,0,1-368.128-1812.543Zm-18.148,0a1.762,1.762,0,0,1-.27-2.434,2.035,2.035,0,0,1,1.639-1.023,1.234,1.234,0,0,1,.66.182,1.774,1.774,0,0,1,.27,2.434,2,2,0,0,1-1.633,1.022A1.269,1.269,0,0,1-386.276-1812.543Z" transform="translate(478 1816)" fill="#fff"/>
</svg>
